<svg width="27" height="29" viewBox="0 0 27 29" fill="none" xmlns="http://www.w3.org/2000/svg">
<path d="M13.0703 28.3555C11.2656 28.3555 9.57487 28.0137 7.99805 27.3301C6.42122 26.6556 5.03125 25.7214 3.82812 24.5273C2.63411 23.3242 1.69531 21.9342 1.01172 20.3574C0.33724 18.7806 0 17.0898 0 15.2852C0 13.4805 0.33724 11.7897 1.01172 10.2129C1.69531 8.62695 2.63411 7.23698 3.82812 6.04297C5.03125 4.83984 6.42122 3.90104 7.99805 3.22656C9.57487 2.54297 11.2656 2.20117 13.0703 2.20117C14.875 2.20117 16.5658 2.54297 18.1426 3.22656C19.7285 3.90104 21.1185 4.83984 22.3125 6.04297C23.5156 7.23698 24.4544 8.62695 25.1289 10.2129C25.8034 11.7897 26.1406 13.4805 26.1406 15.2852C26.1406 17.0898 25.8034 18.7806 25.1289 20.3574C24.4544 21.9342 23.5156 23.3242 22.3125 24.5273C21.1185 25.7214 19.7285 26.6556 18.1426 27.3301C16.5658 28.0137 14.875 28.3555 13.0703 28.3555ZM6.84961 16.7891H13.0566C13.3301 16.7891 13.5579 16.6979 13.7402 16.5156C13.9225 16.3333 14.0137 16.11 14.0137 15.8457V7.56055C14.0137 7.28711 13.9225 7.05924 13.7402 6.87695C13.5579 6.69466 13.3301 6.60352 13.0566 6.60352C12.7923 6.60352 12.569 6.69466 12.3867 6.87695C12.2044 7.05924 12.1133 7.28711 12.1133 7.56055V14.8887H6.84961C6.58529 14.8887 6.36198 14.9798 6.17969 15.1621C5.9974 15.3444 5.90625 15.5723 5.90625 15.8457C5.90625 16.11 5.9974 16.3333 6.17969 16.5156C6.36198 16.6979 6.58529 16.7891 6.84961 16.7891ZM1.8457 5.71484C1.67253 5.71484 1.51758 5.66927 1.38086 5.57812C1.24414 5.47786 1.13932 5.34115 1.06641 5.16797C0.99349 5.01302 0.934245 4.81706 0.888672 4.58008C0.852214 4.3431 0.833984 4.09701 0.833984 3.8418C0.833984 3.13086 1.0026 2.48828 1.33984 1.91406C1.6862 1.33073 2.15104 0.865885 2.73438 0.519531C3.31771 0.173177 3.96484 0 4.67578 0C5.08594 0 5.50065 0.0638021 5.91992 0.191406C6.33919 0.309896 6.68099 0.48763 6.94531 0.724609C7.19141 0.952474 7.31445 1.19857 7.31445 1.46289C7.31445 1.69987 7.20052 1.90495 6.97266 2.07812L2.39258 5.53711C2.29232 5.61003 2.20117 5.66016 2.11914 5.6875C2.03711 5.70573 1.94596 5.71484 1.8457 5.71484ZM24.2949 5.71484C24.1947 5.71484 24.1035 5.70573 24.0215 5.6875C23.9395 5.66016 23.8483 5.61003 23.748 5.53711L19.1816 2.07812C18.9447 1.90495 18.8262 1.69987 18.8262 1.46289C18.8262 1.19857 18.9492 0.952474 19.1953 0.724609C19.4596 0.48763 19.8014 0.309896 20.2207 0.191406C20.64 0.0638021 21.0547 0 21.4648 0C22.1758 0 22.8229 0.173177 23.4062 0.519531C23.9896 0.865885 24.4499 1.33073 24.7871 1.91406C25.1335 2.48828 25.3066 3.13086 25.3066 3.8418C25.3066 4.09701 25.2884 4.34766 25.252 4.59375C25.2155 4.83073 25.1608 5.02214 25.0879 5.16797C25.0059 5.33203 24.8965 5.46419 24.7598 5.56445C24.623 5.66471 24.4681 5.71484 24.2949 5.71484ZM1.64062 27.959C1.4401 27.7676 1.33984 27.526 1.33984 27.2344C1.33984 26.9427 1.44466 26.6921 1.6543 26.4824L4.25195 23.9121L5.72852 25.375L3.14453 27.9453C2.9349 28.1641 2.67969 28.2734 2.37891 28.2734C2.08724 28.2734 1.84115 28.1686 1.64062 27.959ZM24.5 27.959C24.2995 28.1686 24.0488 28.2734 23.748 28.2734C23.4564 28.2734 23.2057 28.1641 22.9961 27.9453L20.4258 25.375L21.8887 23.9121L24.4863 26.4824C24.7051 26.6921 24.8099 26.9427 24.8008 27.2344C24.8008 27.526 24.7005 27.7676 24.5 27.959Z" fill="#999999"/>
</svg>
