<svg width="35" height="26" viewBox="0 0 35 26" fill="none" xmlns="http://www.w3.org/2000/svg">
<path fill-rule="evenodd" clip-rule="evenodd" d="M18.6666 0C25.6622 0 31.3333 5.67105 31.3333 12.6667C31.3333 19.6622 25.6622 25.3333 18.6666 25.3333H12.6666C5.67105 25.3333 0 19.6622 0 12.6667C0 5.67105 5.67105 0 12.6666 0H18.6666ZM27.4715 1.05005C30.8895 2.43896 34.9379 6.31207 34.9379 12.4268C34.9379 18.5479 31.2047 23.0072 27.4715 24.1298C30.1063 21.8618 33.0227 18.5479 33.0227 12.4268C33.0227 6.31207 29.1787 2.99048 27.4715 1.05005ZM9.34982 17.138C9.01877 17.0811 8.6417 17.1033 8.25533 17.1926L7.97778 17.6733L7.96475 17.6959C7.90064 17.807 7.62202 18.2896 7.61919 18.2945C7.59001 18.345 7.56088 18.3956 7.53201 18.4463C7.50506 18.4936 7.47837 18.5411 7.45239 18.589C7.39584 18.6934 7.34201 18.8006 7.30165 18.9129C7.26074 19.0269 7.23562 19.1404 7.22943 19.2617C7.22326 19.381 7.23381 19.5045 7.26494 19.62C7.29606 19.7353 7.34212 19.8507 7.40744 19.9509C7.47384 20.0529 7.54789 20.1463 7.64247 20.2224C7.73561 20.2974 7.77332 20.3179 7.80807 20.338C7.84284 20.3581 7.8796 20.3805 7.99108 20.4237C8.10429 20.4676 8.22218 20.485 8.34377 20.4915C8.46315 20.498 8.58607 20.4802 8.70154 20.4495C8.81703 20.4187 8.92933 20.3661 9.02953 20.3011C9.13145 20.2351 9.21724 20.1565 9.29539 20.0641C9.37245 19.9731 9.43839 19.8729 9.50051 19.7716L9.58433 19.6313C9.61364 19.5812 9.64264 19.531 9.67164 19.4807C9.675 19.475 10.0274 18.8645 10.0307 18.8587L10.5852 17.8982L10.4722 17.7507C10.1566 17.3818 9.73381 17.2039 9.34982 17.138ZM16.9188 8.22187C16.5888 8.5507 16.2644 9.07286 16.1307 9.60229C15.9338 10.3811 15.9569 11.2973 16.4703 12.1866L16.7489 12.6692L17.6796 14.2814L19.0431 16.6432L20.3221 18.8587L20.3351 18.8814C20.3994 18.9927 20.6781 19.4756 20.6811 19.4808C20.7101 19.531 20.7391 19.5812 20.7684 19.6313L20.8523 19.7717C20.9144 19.8729 20.9804 19.973 21.0574 20.0641C21.1355 20.1566 21.2213 20.2351 21.3232 20.3011C21.4234 20.3661 21.5357 20.4187 21.6512 20.4495C21.7667 20.4802 21.8896 20.498 22.009 20.4915C22.1306 20.485 22.2485 20.4676 22.3617 20.4237C22.4732 20.3805 22.5099 20.3581 22.5447 20.338C22.5795 20.3179 22.6172 20.2974 22.7103 20.2224C22.8049 20.1463 22.8789 20.0529 22.9453 19.9509C23.0107 19.8507 23.0567 19.7353 23.0878 19.6199C23.119 19.5045 23.1295 19.381 23.1234 19.2617C23.1171 19.1404 23.092 19.0269 23.0511 18.9129C23.0108 18.8007 22.9569 18.6935 22.9004 18.589C22.8744 18.5411 22.8477 18.4936 22.8207 18.4462L22.7336 18.2945L22.7206 18.2719C22.6564 18.1609 22.3778 17.6782 22.375 17.6734L21.7803 16.6432L23.1721 16.6428L23.2536 16.6421L23.335 16.6404C23.4532 16.6372 23.5725 16.6303 23.6895 16.6092C23.8082 16.5877 23.9186 16.5528 24.0264 16.4978C24.1324 16.4437 24.2337 16.373 24.3178 16.2887C24.4018 16.2044 24.4784 16.1072 24.5323 16.0009C24.5873 15.8928 24.6309 15.7824 24.6495 15.6628C24.6678 15.5451 24.6667 15.5023 24.6667 15.4624L24.6666 15.4307C24.666 15.3962 24.6632 15.35 24.6495 15.2617C24.6309 15.1422 24.5873 15.0318 24.5323 14.9237C24.4784 14.8174 24.4018 14.7202 24.3178 14.6359C24.2337 14.5516 24.1324 14.4809 24.0264 14.4268C23.9186 14.3717 23.8082 14.3368 23.6895 14.3154C23.5725 14.2943 23.4532 14.2873 23.335 14.2841C23.2807 14.2827 23.2264 14.2821 23.1721 14.2817L20.4168 14.2814L18.8019 11.4838L16.9188 8.22187ZM16.8074 3.66792C16.6879 3.66146 16.565 3.67925 16.4496 3.70998C16.334 3.74074 16.2218 3.79336 16.1216 3.85834C16.0197 3.92437 15.9338 4.00288 15.8557 4.09529C15.7786 4.18638 15.7127 4.28657 15.6506 4.38779C15.6221 4.43427 15.5943 4.48111 15.5668 4.52814C15.5373 4.5785 15.5081 4.62899 15.479 4.67954C15.4758 4.68505 15.4726 4.69056 15.4694 4.69604L15.1764 5.20361L14.8834 4.69604L14.8786 4.6878C14.8447 4.62899 14.8155 4.5785 14.786 4.52814L14.7022 4.38779L14.6052 4.23774L14.4971 4.09529C14.4189 4.00288 14.3331 3.92437 14.2312 3.85834C14.131 3.79336 14.0188 3.74074 13.9032 3.70998C13.7878 3.67925 13.6648 3.66146 13.5454 3.66792C13.4238 3.67443 13.306 3.69188 13.1927 3.73573C13.0813 3.77893 13.0446 3.80128 13.0099 3.82136C12.9751 3.84146 12.9373 3.86206 12.8441 3.93701C12.7496 4.01317 12.6755 4.10652 12.6091 4.20858C12.5438 4.30877 12.4978 4.42414 12.4666 4.5395C12.4355 4.65492 12.4249 4.77847 12.4311 4.89772C12.4373 5.01904 12.4624 5.1326 12.5033 5.24652C12.5437 5.35876 12.5975 5.46597 12.6541 5.57039C12.6801 5.61833 12.7068 5.66578 12.7337 5.71318C12.7624 5.76359 12.7914 5.81384 12.8204 5.86407C12.8237 5.86987 12.8271 5.87567 12.8304 5.88147L13.8078 7.57442L11.5509 11.4838L9.93593 14.2813L7.16135 14.2817C7.10702 14.2821 7.05278 14.2827 6.99848 14.2841C6.8802 14.2873 6.76093 14.2943 6.64394 14.3154C6.52529 14.3368 6.41483 14.3717 6.30705 14.4268C6.20108 14.4809 6.09975 14.5516 6.01567 14.6359C5.93164 14.7202 5.85504 14.8174 5.80114 14.9237C5.74621 15.0318 5.70249 15.1422 5.68394 15.2617C5.67026 15.3501 5.6674 15.3963 5.66683 15.4307V15.494C5.6674 15.5284 5.67026 15.5745 5.68394 15.6628C5.70249 15.7824 5.74621 15.8928 5.80114 16.0009C5.85504 16.1072 5.93164 16.2044 6.01567 16.2887C6.09975 16.373 6.20108 16.4437 6.30705 16.4978C6.41483 16.5528 6.52529 16.5878 6.64394 16.6092C6.76093 16.6303 6.8802 16.6372 6.99848 16.6404C7.05278 16.6419 7.10702 16.6425 7.16135 16.6428L17.719 16.6432L17.7774 16.4739C17.9927 15.753 17.7299 15.202 17.4746 14.885C17.1371 14.4661 16.6601 14.2813 16.1013 14.2813H12.6732L13.6039 12.6692L15.1764 9.94522L16.545 7.57442L17.5223 5.88147L17.5274 5.87277C17.5614 5.81384 17.5904 5.76359 17.6191 5.71318C17.646 5.66578 17.6727 5.61833 17.6987 5.57039C17.7553 5.46597 17.8091 5.35876 17.8494 5.24652C17.8904 5.1326 17.9155 5.01904 17.9217 4.89772C17.9279 4.77847 17.9172 4.65492 17.8862 4.5395C17.855 4.42414 17.809 4.30877 17.7437 4.20858C17.6773 4.10652 17.6032 4.01317 17.5086 3.93701C17.4155 3.86206 17.3777 3.84146 17.3429 3.82136C17.3081 3.80128 17.2715 3.77893 17.16 3.73573C17.0468 3.69188 16.9289 3.67443 16.8074 3.66792Z" fill="#999999"/>
</svg>
