<svg width="41" height="19" viewBox="0 0 41 19" fill="none" xmlns="http://www.w3.org/2000/svg">
<path d="M6.19336 14.7109C5.72852 14.7109 5.3457 14.6745 5.04492 14.6016C4.75326 14.5195 4.51172 14.3828 4.32031 14.1914C4.12891 14 3.99219 13.7585 3.91016 13.4668C3.83724 13.1751 3.80078 12.7923 3.80078 12.3184V6.20703C3.80078 5.72396 3.83724 5.33659 3.91016 5.04492C3.99219 4.74414 4.12891 4.49805 4.32031 4.30664C4.5026 4.11523 4.74414 3.98307 5.04492 3.91016C5.3457 3.82812 5.74219 3.78711 6.23438 3.78711H15.6406C16.1055 3.78711 16.4837 3.82812 16.7754 3.91016C17.0762 3.98307 17.3223 4.11523 17.5137 4.30664C17.7051 4.49805 17.8418 4.73958 17.9238 5.03125C18.0059 5.32292 18.0469 5.70573 18.0469 6.17969V12.3184C18.0469 13.2116 17.8691 13.8359 17.5137 14.1914C17.3223 14.3828 17.0807 14.5195 16.7891 14.6016C16.4974 14.6745 16.1146 14.7109 15.6406 14.7109H6.19336ZM7.28711 18.498C6.12044 18.498 5.05404 18.4069 4.08789 18.2246C3.13086 18.0332 2.30143 17.5866 1.59961 16.8848C0.897786 16.1921 0.455729 15.3672 0.273438 14.4102C0.0911458 13.444 0 12.3776 0 11.2109V7.24609C0 6.10677 0.0911458 5.05859 0.273438 4.10156C0.464844 3.14453 0.906901 2.3151 1.59961 1.61328C2.30143 0.920573 3.13086 0.478516 4.08789 0.287109C5.05404 0.0957031 6.11133 0 7.25977 0H28.7793C29.946 0 31.0124 0.0957031 31.9785 0.287109C32.9447 0.469401 33.7786 0.911458 34.4805 1.61328C35.1732 2.30599 35.6107 3.13542 35.793 4.10156C35.9844 5.05859 36.0801 6.12044 36.0801 7.28711V11.2109C36.0801 12.3776 35.9844 13.444 35.793 14.4102C35.6107 15.3672 35.1732 16.1921 34.4805 16.8848C33.7786 17.5866 32.9447 18.0332 31.9785 18.2246C31.0124 18.4069 29.946 18.498 28.7793 18.498H7.28711ZM6.91797 16.2969H29.1621C29.8639 16.2969 30.5521 16.2331 31.2266 16.1055C31.9102 15.9688 32.457 15.6953 32.8672 15.2852C33.2865 14.8659 33.5599 14.3236 33.6875 13.6582C33.8151 12.9837 33.8789 12.291 33.8789 11.5801V6.9043C33.8789 6.20247 33.8151 5.51888 33.6875 4.85352C33.5599 4.17904 33.2865 3.63216 32.8672 3.21289C32.457 2.80273 31.9102 2.53385 31.2266 2.40625C30.5521 2.26953 29.8639 2.20117 29.1621 2.20117H6.95898C6.23893 2.20117 5.53255 2.26497 4.83984 2.39258C4.15625 2.52018 3.60938 2.79362 3.19922 3.21289C2.78906 3.62305 2.52018 4.16992 2.39258 4.85352C2.26497 5.52799 2.20117 6.22526 2.20117 6.94531V11.5801C2.20117 12.291 2.26497 12.9837 2.39258 13.6582C2.52018 14.3236 2.78906 14.8659 3.19922 15.2852C3.61849 15.6953 4.16536 15.9688 4.83984 16.1055C5.52344 16.2331 6.21615 16.2969 6.91797 16.2969ZM37.9395 12.7832V5.71484C38.304 5.73307 38.6823 5.89258 39.0742 6.19336C39.4661 6.49414 39.7943 6.9043 40.0586 7.42383C40.332 7.94336 40.4688 8.54948 40.4688 9.24219C40.4688 9.94401 40.332 10.5547 40.0586 11.0742C39.7943 11.5938 39.4661 12.0039 39.0742 12.3047C38.6823 12.5964 38.304 12.7559 37.9395 12.7832Z" fill="black"/>
</svg>
