<svg width="34" height="27" viewBox="0 0 34 27" fill="none" xmlns="http://www.w3.org/2000/svg">
<path d="M28.3281 10.4863C28.8021 10.4863 29.2031 10.3223 29.5312 9.99414C29.8685 9.6569 30.0371 9.25586 30.0371 8.79102C30.0371 8.31706 29.8685 7.91602 29.5312 7.58789C29.2031 7.25977 28.8021 7.0957 28.3281 7.0957C27.8633 7.0957 27.4622 7.25977 27.125 7.58789C26.7969 7.91602 26.6328 8.31706 26.6328 8.79102C26.6328 9.25586 26.7969 9.6569 27.125 9.99414C27.4622 10.3223 27.8633 10.4863 28.3281 10.4863ZM4.29297 26.0723C2.86198 26.0723 1.78646 25.7168 1.06641 25.0059C0.355469 24.304 0 23.2467 0 21.834V7.51953C0 6.11589 0.355469 5.06315 1.06641 4.36133C1.78646 3.65039 2.86198 3.29492 4.29297 3.29492H8.10742C8.64518 3.29492 9.04167 3.23112 9.29688 3.10352C9.55208 2.9668 9.83008 2.72982 10.1309 2.39258L11.2246 1.16211C11.571 0.788411 11.9447 0.501302 12.3457 0.300781C12.7559 0.10026 13.3118 0 14.0137 0H19.4688C20.1706 0 20.7266 0.10026 21.1367 0.300781C21.5469 0.501302 21.9206 0.788411 22.2578 1.16211L23.3516 2.39258C23.5612 2.62044 23.748 2.80273 23.9121 2.93945C24.0853 3.06706 24.2812 3.1582 24.5 3.21289C24.7188 3.26758 25.0104 3.29492 25.375 3.29492H29.2852C30.707 3.29492 31.778 3.65039 32.498 4.36133C33.2181 5.06315 33.5781 6.11589 33.5781 7.51953V21.834C33.5781 23.2467 33.2181 24.304 32.498 25.0059C31.778 25.7168 30.707 26.0723 29.2852 26.0723H4.29297ZM16.7891 22.0391C17.819 22.0391 18.7852 21.8477 19.6875 21.4648C20.5898 21.082 21.3828 20.5488 22.0664 19.8652C22.75 19.1816 23.2832 18.3887 23.666 17.4863C24.0488 16.584 24.2402 15.6087 24.2402 14.5605C24.2402 13.1751 23.9076 11.9173 23.2422 10.7871C22.5768 9.6569 21.679 8.75911 20.5488 8.09375C19.4186 7.42839 18.1654 7.0957 16.7891 7.0957C15.75 7.0957 14.7793 7.28711 13.877 7.66992C12.9746 8.05273 12.1816 8.58594 11.498 9.26953C10.8236 9.95312 10.2904 10.7461 9.89844 11.6484C9.51562 12.5508 9.32422 13.5215 9.32422 14.5605C9.32422 15.6087 9.51562 16.584 9.89844 17.4863C10.2904 18.3887 10.8236 19.1816 11.498 19.8652C12.1816 20.5488 12.9746 21.082 13.877 21.4648C14.7793 21.8477 15.75 22.0391 16.7891 22.0391ZM16.7891 19.9609C15.7956 19.9609 14.8887 19.7194 14.0684 19.2363C13.2572 18.7533 12.6055 18.1061 12.1133 17.2949C11.6302 16.4746 11.3887 15.5632 11.3887 14.5605C11.3887 13.5671 11.6302 12.6647 12.1133 11.8535C12.6055 11.0332 13.2572 10.3815 14.0684 9.89844C14.8887 9.40625 15.7956 9.16016 16.7891 9.16016C17.7826 9.16016 18.6849 9.40625 19.4961 9.89844C20.3164 10.3815 20.9681 11.0332 21.4512 11.8535C21.9342 12.6647 22.1758 13.5671 22.1758 14.5605C22.1758 15.5632 21.9342 16.4746 21.4512 17.2949C20.9681 18.1061 20.3164 18.7533 19.4961 19.2363C18.6849 19.7194 17.7826 19.9609 16.7891 19.9609Z" fill="#999999"/>
</svg>
