<svg width="34" height="27" viewBox="0 0 34 27" fill="none" xmlns="http://www.w3.org/2000/svg">
<path d="M27.1387 10.4863C26.6647 10.4863 26.2637 10.3223 25.9355 9.99414C25.6074 9.6569 25.4434 9.25586 25.4434 8.79102C25.4434 8.31706 25.6074 7.91602 25.9355 7.58789C26.2637 7.25977 26.6647 7.0957 27.1387 7.0957C27.6035 7.0957 28 7.25977 28.3281 7.58789C28.6654 7.91602 28.834 8.31706 28.834 8.79102C28.834 9.25586 28.6654 9.6569 28.3281 9.99414C28 10.3223 27.6035 10.4863 27.1387 10.4863ZM4.29297 26.0723C2.86198 26.0723 1.78646 25.7168 1.06641 25.0059C0.355469 24.304 0 23.2467 0 21.834V7.51953C0 6.11589 0.355469 5.06315 1.06641 4.36133C1.78646 3.65039 2.86198 3.29492 4.29297 3.29492H8.10742C8.64518 3.29492 9.04167 3.23112 9.29688 3.10352C9.55208 2.9668 9.83008 2.72982 10.1309 2.39258L11.2246 1.16211C11.571 0.788411 11.9447 0.501302 12.3457 0.300781C12.7559 0.10026 13.3118 0 14.0137 0H19.4688C20.1706 0 20.7266 0.10026 21.1367 0.300781C21.5469 0.501302 21.9206 0.788411 22.2578 1.16211L23.3516 2.39258C23.5612 2.62044 23.748 2.80273 23.9121 2.93945C24.0853 3.06706 24.2812 3.1582 24.5 3.21289C24.7188 3.26758 25.0104 3.29492 25.375 3.29492H29.2852C30.707 3.29492 31.778 3.65039 32.498 4.36133C33.2181 5.06315 33.5781 6.11589 33.5781 7.51953V21.834C33.5781 23.2467 33.2181 24.304 32.498 25.0059C31.778 25.7168 30.707 26.0723 29.2852 26.0723H4.29297ZM4.32031 23.8711H29.2441C29.9186 23.8711 30.4427 23.6934 30.8164 23.3379C31.1901 22.9733 31.377 22.4355 31.377 21.7246V7.64258C31.377 6.93164 31.1901 6.39844 30.8164 6.04297C30.4427 5.67839 29.9186 5.49609 29.2441 5.49609H24.8281C24.2083 5.49609 23.707 5.42773 23.3242 5.29102C22.9505 5.14518 22.5905 4.88086 22.2441 4.49805L21.1777 3.29492C20.7858 2.85742 20.4395 2.56576 20.1387 2.41992C19.8379 2.27409 19.3867 2.20117 18.7852 2.20117H14.6973C14.0957 2.20117 13.6445 2.27409 13.3438 2.41992C13.043 2.56576 12.6966 2.85742 12.3047 3.29492L11.2383 4.49805C10.8919 4.88086 10.5273 5.14518 10.1445 5.29102C9.77083 5.42773 9.27409 5.49609 8.6543 5.49609H4.32031C3.64583 5.49609 3.12174 5.67839 2.74805 6.04297C2.38346 6.39844 2.20117 6.93164 2.20117 7.64258V21.7246C2.20117 22.4355 2.38346 22.9733 2.74805 23.3379C3.12174 23.6934 3.64583 23.8711 4.32031 23.8711ZM16.7891 21.9023C15.75 21.9023 14.7793 21.7109 13.877 21.3281C12.9746 20.9453 12.1816 20.4121 11.498 19.7285C10.8236 19.0449 10.2904 18.252 9.89844 17.3496C9.51562 16.4473 9.32422 15.472 9.32422 14.4238C9.32422 13.3848 9.51562 12.4141 9.89844 11.5117C10.2904 10.6094 10.8236 9.81641 11.498 9.13281C12.1816 8.44922 12.9746 7.91602 13.877 7.5332C14.7793 7.15039 15.75 6.95898 16.7891 6.95898C18.1654 6.95898 19.4186 7.29167 20.5488 7.95703C21.679 8.6224 22.5768 9.52018 23.2422 10.6504C23.9076 11.7806 24.2402 13.0384 24.2402 14.4238C24.2402 15.472 24.0488 16.4473 23.666 17.3496C23.2832 18.252 22.75 19.0449 22.0664 19.7285C21.3828 20.4121 20.5898 20.9453 19.6875 21.3281C18.7852 21.7109 17.819 21.9023 16.7891 21.9023ZM16.7891 19.8242C17.7826 19.8242 18.6849 19.5827 19.4961 19.0996C20.3164 18.6165 20.9681 17.9694 21.4512 17.1582C21.9342 16.3379 22.1758 15.4264 22.1758 14.4238C22.1758 13.4303 21.9342 12.528 21.4512 11.7168C20.9681 10.8965 20.3164 10.2448 19.4961 9.76172C18.6849 9.26953 17.7826 9.02344 16.7891 9.02344C15.7956 9.02344 14.8887 9.26953 14.0684 9.76172C13.2572 10.2448 12.6055 10.8965 12.1133 11.7168C11.6302 12.528 11.3887 13.4303 11.3887 14.4238C11.3887 15.4264 11.6302 16.3379 12.1133 17.1582C12.6055 17.9694 13.2572 18.6165 14.0684 19.0996C14.8887 19.5827 15.7956 19.8242 16.7891 19.8242Z" fill="#007AFF"/>
</svg>
