<svg width="37" height="24" viewBox="0 0 37 24" fill="none" xmlns="http://www.w3.org/2000/svg">
<path d="M1.43555 23.7344C1.00716 23.7344 0.660807 23.5977 0.396484 23.3242C0.132161 23.0508 0 22.6908 0 22.2441V16.1055C0 15.6589 0.132161 15.3034 0.396484 15.0391C0.660807 14.7656 1.00716 14.6289 1.43555 14.6289H4.73047C5.15885 14.6289 5.50521 14.7656 5.76953 15.0391C6.03385 15.3034 6.16602 15.6589 6.16602 16.1055V22.2441C6.16602 22.6908 6.03385 23.0508 5.76953 23.3242C5.50521 23.5977 5.15885 23.7344 4.73047 23.7344H1.43555ZM11.6758 23.7344C11.2474 23.7344 10.901 23.5977 10.6367 23.3242C10.3724 23.0508 10.2402 22.6908 10.2402 22.2441V11.8398C10.2402 11.3932 10.3724 11.0332 10.6367 10.7598C10.901 10.4863 11.2474 10.3496 11.6758 10.3496H14.9707C15.3991 10.3496 15.7454 10.4863 16.0098 10.7598C16.2741 11.0332 16.4062 11.3932 16.4062 11.8398V22.2441C16.4062 22.6908 16.2741 23.0508 16.0098 23.3242C15.7454 23.5977 15.3991 23.7344 14.9707 23.7344H11.6758ZM21.916 23.7344C21.4876 23.7344 21.1413 23.5977 20.877 23.3242C20.6126 23.0508 20.4805 22.6908 20.4805 22.2441V6.89062C20.4805 6.44401 20.6126 6.08398 20.877 5.81055C21.1413 5.53711 21.4876 5.40039 21.916 5.40039H25.2109C25.6393 5.40039 25.9857 5.53711 26.25 5.81055C26.5143 6.08398 26.6465 6.44401 26.6465 6.89062V22.2441C26.6465 22.6908 26.5143 23.0508 26.25 23.3242C25.9857 23.5977 25.6393 23.7344 25.2109 23.7344H21.916ZM32.1426 23.7344C31.7142 23.7344 31.3678 23.5977 31.1035 23.3242C30.8392 23.0508 30.707 22.6908 30.707 22.2441V1.49023C30.707 1.04362 30.8392 0.683594 31.1035 0.410156C31.3678 0.136719 31.7142 0 32.1426 0H35.4648C35.8932 0 36.235 0.136719 36.4902 0.410156C36.7546 0.683594 36.8867 1.04362 36.8867 1.49023V22.2441C36.8867 22.6908 36.7546 23.0508 36.4902 23.3242C36.235 23.5977 35.8932 23.7344 35.4648 23.7344H32.1426Z" fill="black"/>
</svg>
