<svg width="31" height="28" viewBox="0 0 31 28" fill="none" xmlns="http://www.w3.org/2000/svg">
<path d="M5.89258 27.6172C4.82617 27.6172 3.84635 27.3483 2.95312 26.8105C2.0599 26.2728 1.3444 25.5573 0.806641 24.6641C0.26888 23.7708 0 22.791 0 21.7246C0 20.6491 0.264323 19.6647 0.792969 18.7715C1.33073 17.8783 2.04622 17.1628 2.93945 16.625C3.83268 16.0872 4.81706 15.8184 5.89258 15.8184C6.9681 15.8184 7.94792 16.0872 8.83203 16.625C9.72526 17.1536 10.4408 17.8646 10.9785 18.7578C11.5163 19.651 11.7852 20.64 11.7852 21.7246C11.7852 22.791 11.5163 23.7708 10.9785 24.6641C10.4408 25.5573 9.72526 26.2728 8.83203 26.8105C7.94792 27.3483 6.9681 27.6172 5.89258 27.6172ZM5.89258 25.6211C6.5944 25.6211 7.24154 25.4434 7.83398 25.0879C8.42643 24.7324 8.90039 24.2585 9.25586 23.666C9.61133 23.0736 9.78906 22.4264 9.78906 21.7246C9.78906 21.0137 9.61133 20.362 9.25586 19.7695C8.90039 19.1771 8.42643 18.7031 7.83398 18.3477C7.24154 17.9922 6.5944 17.8145 5.89258 17.8145C5.19076 17.8145 4.54362 17.9922 3.95117 18.3477C3.35872 18.7031 2.88477 19.1771 2.5293 19.7695C2.17383 20.362 1.99609 21.0137 1.99609 21.7246C1.99609 22.4264 2.17383 23.0736 2.5293 23.666C2.88477 24.2585 3.35872 24.7324 3.95117 25.0879C4.54362 25.4434 5.19076 25.6211 5.89258 25.6211ZM15.9414 7.01367C15.6315 7.01367 15.3672 6.90885 15.1484 6.69922C14.9388 6.48047 14.834 6.21615 14.834 5.90625C14.834 5.59635 14.9388 5.33659 15.1484 5.12695C15.3672 4.91732 15.6315 4.8125 15.9414 4.8125H29.5312C29.8411 4.8125 30.1055 4.91732 30.3242 5.12695C30.543 5.33659 30.6523 5.59635 30.6523 5.90625C30.6523 6.21615 30.543 6.48047 30.3242 6.69922C30.1055 6.90885 29.8411 7.01367 29.5312 7.01367H15.9414ZM15.9414 22.8184C15.6315 22.8184 15.3672 22.7135 15.1484 22.5039C14.9388 22.2852 14.834 22.0254 14.834 21.7246C14.834 21.4147 14.9388 21.1549 15.1484 20.9453C15.3672 20.7266 15.6315 20.6172 15.9414 20.6172H29.5312C29.8411 20.6172 30.1055 20.7266 30.3242 20.9453C30.543 21.1549 30.6523 21.4147 30.6523 21.7246C30.6523 22.0254 30.543 22.2852 30.3242 22.5039C30.1055 22.7135 29.8411 22.8184 29.5312 22.8184H15.9414ZM5.89258 11.7988C4.82617 11.7988 3.84635 11.5299 2.95312 10.9922C2.0599 10.4544 1.3444 9.73893 0.806641 8.8457C0.26888 7.95247 0 6.9681 0 5.89258C0 4.81706 0.264323 3.83268 0.792969 2.93945C1.33073 2.04622 2.04622 1.33529 2.93945 0.806641C3.83268 0.26888 4.81706 0 5.89258 0C6.9681 0 7.94792 0.26888 8.83203 0.806641C9.72526 1.33529 10.4408 2.04622 10.9785 2.93945C11.5163 3.83268 11.7852 4.81706 11.7852 5.89258C11.7852 6.9681 11.5163 7.95247 10.9785 8.8457C10.4408 9.73893 9.72526 10.4544 8.83203 10.9922C7.94792 11.5299 6.9681 11.7988 5.89258 11.7988ZM5.19531 9.06445C5.49609 9.06445 5.72852 8.93685 5.89258 8.68164L8.75 4.19727C8.86849 4.00586 8.92773 3.81901 8.92773 3.63672C8.92773 3.46354 8.85482 3.31315 8.70898 3.18555C8.57227 3.05794 8.4082 2.99414 8.2168 2.99414C7.9707 2.99414 7.76562 3.12174 7.60156 3.37695L5.16797 7.28711L4.10156 5.93359C4.01042 5.8151 3.91471 5.72852 3.81445 5.67383C3.72331 5.61914 3.60938 5.5918 3.47266 5.5918C3.29036 5.5918 3.13086 5.66016 2.99414 5.79688C2.86654 5.93359 2.80273 6.10221 2.80273 6.30273C2.80273 6.51237 2.86198 6.6901 2.98047 6.83594L4.51172 8.68164C4.61198 8.80013 4.71224 8.89583 4.8125 8.96875C4.92188 9.03255 5.04948 9.06445 5.19531 9.06445Z" fill="#007AFF"/>
</svg>
