<svg width="40" height="28" viewBox="0 0 40 28" fill="none" xmlns="http://www.w3.org/2000/svg">
<path d="M5.70117 27.5352C4.56185 27.5352 3.5638 27.3118 2.70703 26.8652C1.85026 26.4277 1.1849 25.8171 0.710938 25.0332C0.236979 24.2493 0 23.3516 0 22.3398C0 21.1094 0.350911 20.0384 1.05273 19.127C1.75456 18.2155 2.67513 17.5911 3.81445 17.2539C3.92383 16.1328 4.22461 15.0892 4.7168 14.123C5.20898 13.1569 5.84701 12.3138 6.63086 11.5938C7.41471 10.8646 8.30339 10.2995 9.29688 9.89844C10.2995 9.4974 11.3568 9.29688 12.4688 9.29688C13.599 9.29688 14.6562 9.49284 15.6406 9.88477C16.625 10.2676 17.5046 10.8236 18.2793 11.5527C19.0632 12.2728 19.7194 13.1296 20.248 14.123C21.6061 14.1322 22.8229 14.4329 23.8984 15.0254C24.9831 15.6087 25.8398 16.4017 26.4688 17.4043C27.0977 18.3978 27.4121 19.5234 27.4121 20.7812C27.4121 22.0482 27.1068 23.1921 26.4961 24.2129C25.8854 25.2337 25.056 26.0404 24.0078 26.6328C22.9688 27.2344 21.7975 27.5352 20.4941 27.5352H5.70117ZM28.9844 20.043C28.8568 18.6667 28.4603 17.4544 27.7949 16.4062C27.1387 15.349 26.25 14.5059 25.1289 13.877C24.0078 13.2389 22.6953 12.8607 21.1914 12.7422C20.9818 12.3411 20.7539 11.9766 20.5078 11.6484C20.2617 11.3203 19.9974 11.0059 19.7148 10.7051C20.2799 9.7207 21.0684 8.92318 22.0801 8.3125C23.1009 7.70182 24.2311 7.39648 25.4707 7.39648C26.7194 7.39648 27.8542 7.70182 28.875 8.3125C29.9049 8.92318 30.7207 9.74349 31.3223 10.7734C31.9238 11.7943 32.2246 12.929 32.2246 14.1777C32.2246 15.39 31.9329 16.502 31.3496 17.5137C30.7754 18.5163 29.987 19.3594 28.9844 20.043ZM17.541 7.86133L15.4629 5.76953C15.235 5.55078 15.1211 5.28646 15.1211 4.97656C15.1302 4.65755 15.2441 4.38867 15.4629 4.16992C15.6816 3.95117 15.946 3.8418 16.2559 3.8418C16.5658 3.8418 16.8301 3.95117 17.0488 4.16992L19.1543 6.27539C19.373 6.49414 19.4779 6.75846 19.4688 7.06836C19.4688 7.37826 19.3639 7.64258 19.1543 7.86133C18.9447 8.08008 18.6803 8.19401 18.3613 8.20312C18.0423 8.20312 17.7689 8.08919 17.541 7.86133ZM25.4707 5.23633C25.1608 5.23633 24.8919 5.1224 24.6641 4.89453C24.4453 4.66667 24.3359 4.40234 24.3359 4.10156V1.13477C24.3359 0.82487 24.4453 0.560547 24.6641 0.341797C24.8919 0.113932 25.1608 0 25.4707 0C25.7806 0 26.0449 0.113932 26.2637 0.341797C26.4915 0.560547 26.6055 0.82487 26.6055 1.13477V4.10156C26.6055 4.40234 26.4915 4.66667 26.2637 4.89453C26.0449 5.1224 25.7806 5.23633 25.4707 5.23633ZM35.5332 15.3125C35.2324 15.3125 34.9681 15.2031 34.7402 14.9844C34.5124 14.7656 34.3984 14.4967 34.3984 14.1777C34.3984 13.8678 34.5124 13.6035 34.7402 13.3848C34.9681 13.1569 35.2324 13.043 35.5332 13.043H38.5C38.8099 13.043 39.0742 13.1569 39.293 13.3848C39.5117 13.6035 39.6211 13.8678 39.6211 14.1777C39.6211 14.4967 39.5117 14.7656 39.293 14.9844C39.0742 15.2031 38.8099 15.3125 38.5 15.3125H35.5332ZM31.7871 7.86133C31.5775 7.64258 31.4681 7.37826 31.459 7.06836C31.459 6.75846 31.5684 6.49414 31.7871 6.27539L33.9062 4.16992C34.125 3.95117 34.3893 3.8418 34.6992 3.8418C35.0091 3.8418 35.2734 3.95117 35.4922 4.16992C35.7109 4.38867 35.8203 4.65755 35.8203 4.97656C35.8203 5.28646 35.7109 5.55078 35.4922 5.76953L33.4004 7.86133C33.1816 8.08919 32.9082 8.20312 32.5801 8.20312C32.2611 8.19401 31.9967 8.08008 31.7871 7.86133ZM33.9062 24.2129L31.7871 22.1211C31.5684 21.9023 31.459 21.638 31.459 21.3281C31.459 21.0091 31.5684 20.7402 31.7871 20.5215C32.0059 20.3027 32.2702 20.1934 32.5801 20.1934C32.89 20.1934 33.1543 20.3027 33.373 20.5215L35.4922 22.6133C35.7109 22.8229 35.8203 23.0872 35.8203 23.4062C35.8203 23.7161 35.7109 23.9805 35.4922 24.1992C35.2734 24.418 35.0091 24.5273 34.6992 24.5273C34.3893 24.5365 34.125 24.4316 33.9062 24.2129Z" fill="white"/>
</svg>
