<svg width="32" height="32" viewBox="0 0 32 32" fill="none" xmlns="http://www.w3.org/2000/svg">
<path d="M6.42578 20.7129C5.06771 20.7129 3.91016 20.4531 2.95312 19.9336C1.99609 19.4049 1.26237 18.6986 0.751953 17.8145C0.250651 16.9212 0 15.9368 0 14.8613C0 13.8952 0.191406 13.0247 0.574219 12.25C0.957031 11.4753 1.47656 10.819 2.13281 10.2812C2.78906 9.73438 3.5319 9.34245 4.36133 9.10547C4.4707 7.83854 4.79883 6.65365 5.3457 5.55078C5.90169 4.44792 6.6263 3.48177 7.51953 2.65234C8.41276 1.82292 9.42448 1.17578 10.5547 0.710938C11.694 0.236979 12.9062 0 14.1914 0C15.513 0 16.7344 0.227865 17.8555 0.683594C18.9766 1.13932 19.9746 1.78646 20.8496 2.625C21.7337 3.45443 22.4583 4.42969 23.0234 5.55078C24.181 5.55078 25.2565 5.73763 26.25 6.11133C27.2435 6.48503 28.1094 7.01367 28.8477 7.69727C29.5951 8.37174 30.1738 9.16927 30.584 10.0898C31.0033 11.0013 31.2129 12.0039 31.2129 13.0977C31.2129 14.1458 31.0169 15.1302 30.625 16.0508C30.2422 16.9714 29.6953 17.7826 28.9844 18.4844C28.2826 19.1862 27.4531 19.7331 26.4961 20.125C25.5482 20.5169 24.5137 20.7129 23.3926 20.7129H6.42578ZM6.78125 27.1113C6.67188 27.3118 6.50781 27.4395 6.28906 27.4941C6.07031 27.5579 5.86068 27.5352 5.66016 27.4258C5.44141 27.3073 5.30469 27.1387 5.25 26.9199C5.19531 26.7103 5.22721 26.5098 5.3457 26.3184L7.13672 23.2012C7.26432 22.9915 7.43294 22.8594 7.64258 22.8047C7.85221 22.7409 8.06185 22.7682 8.27148 22.8867C8.47201 23.0052 8.59961 23.1738 8.6543 23.3926C8.7181 23.6022 8.6862 23.8118 8.55859 24.0215L6.78125 27.1113ZM9.9668 31.0078C9.84831 31.2083 9.68424 31.3359 9.47461 31.3906C9.27409 31.4453 9.07357 31.418 8.87305 31.3086C8.67253 31.1901 8.54492 31.0215 8.49023 30.8027C8.43555 30.5931 8.46745 30.3835 8.58594 30.1738L12.5918 23.2012C12.7103 22.9915 12.8789 22.8594 13.0977 22.8047C13.3164 22.75 13.526 22.7819 13.7266 22.9004C13.918 23.0189 14.041 23.1829 14.0957 23.3926C14.1504 23.6022 14.1185 23.8073 14 24.0078L9.9668 31.0078ZM17.6641 27.0977C17.5456 27.2982 17.377 27.4258 17.1582 27.4805C16.9395 27.5443 16.7298 27.5215 16.5293 27.4121C16.3197 27.2936 16.1875 27.125 16.1328 26.9062C16.0781 26.6966 16.11 26.4961 16.2285 26.3047L18.0195 23.1875C18.138 22.9779 18.3021 22.8457 18.5117 22.791C18.7305 22.7272 18.9401 22.7546 19.1406 22.873C19.3503 22.9915 19.4824 23.1602 19.5371 23.3789C19.6009 23.5885 19.569 23.7982 19.4414 24.0078L17.6641 27.0977ZM20.8359 30.9941C20.7174 31.1947 20.5534 31.3223 20.3438 31.377C20.1432 31.4316 19.9427 31.4043 19.7422 31.2949C19.5417 31.1764 19.4141 31.0078 19.3594 30.7891C19.3047 30.5794 19.3366 30.3698 19.4551 30.1602L23.4746 23.1875C23.5931 22.9779 23.7617 22.8457 23.9805 22.791C24.1992 22.7363 24.4043 22.7682 24.5957 22.8867C24.7962 23.0052 24.9238 23.1693 24.9785 23.3789C25.0332 23.5885 25.0013 23.7936 24.8828 23.9941L20.8359 30.9941Z" fill="white"/>
</svg>
