<svg width="32" height="33" viewBox="0 0 32 33" fill="none" xmlns="http://www.w3.org/2000/svg">
<path d="M6.42578 20.7129C5.06771 20.7129 3.91016 20.4531 2.95312 19.9336C1.99609 19.4049 1.26237 18.6986 0.751953 17.8145C0.250651 16.9212 0 15.9368 0 14.8613C0 13.8952 0.191406 13.0247 0.574219 12.25C0.957031 11.4753 1.47656 10.819 2.13281 10.2812C2.78906 9.73438 3.5319 9.34245 4.36133 9.10547C4.4707 7.83854 4.79883 6.65365 5.3457 5.55078C5.90169 4.44792 6.6263 3.48177 7.51953 2.65234C8.41276 1.82292 9.42448 1.17578 10.5547 0.710938C11.694 0.236979 12.9062 0 14.1914 0C15.513 0 16.7344 0.227865 17.8555 0.683594C18.9766 1.13932 19.9746 1.78646 20.8496 2.625C21.7337 3.45443 22.4583 4.42969 23.0234 5.55078C24.181 5.55078 25.2565 5.73763 26.25 6.11133C27.2435 6.48503 28.1094 7.01367 28.8477 7.69727C29.5951 8.37174 30.1738 9.16927 30.584 10.0898C31.0033 11.0013 31.2129 12.0039 31.2129 13.0977C31.2129 14.1458 31.0169 15.1302 30.625 16.0508C30.2422 16.9714 29.6953 17.7826 28.9844 18.4844C28.2826 19.1862 27.4531 19.7331 26.4961 20.125C25.5482 20.5169 24.5137 20.7129 23.3926 20.7129H6.42578ZM18.8945 25.7852C19.0951 25.7852 19.2181 25.8581 19.2637 26.0039C19.3092 26.1589 19.2591 26.3138 19.1133 26.4688L13.0703 32.6621C12.9245 32.8079 12.7832 32.8535 12.6465 32.7988C12.5007 32.7441 12.4688 32.6165 12.5508 32.416L14.752 27.0703L14.5742 27.877H12.0449C11.8717 27.877 11.7487 27.8268 11.6758 27.7266C11.612 27.6354 11.6165 27.5033 11.6895 27.3301L13.5488 23.0918C13.6126 22.9551 13.6901 22.8503 13.7812 22.7773C13.8724 22.7044 14.0137 22.668 14.2051 22.668H17.1719C17.3177 22.668 17.418 22.7181 17.4727 22.8184C17.5273 22.9186 17.5137 23.0462 17.4316 23.2012L15.7637 26.4004L15.791 25.7852H18.8945Z" fill="white"/>
</svg>
