<svg width="33" height="22" viewBox="0 0 33 22" fill="none" xmlns="http://www.w3.org/2000/svg">
<path d="M6.69922 21.6289C5.35026 21.6289 4.17448 21.3691 3.17188 20.8496C2.16927 20.3301 1.38997 19.6146 0.833984 18.7031C0.277995 17.7826 0 16.7298 0 15.5449C0 14.5788 0.191406 13.6901 0.574219 12.8789C0.966146 12.0677 1.50846 11.375 2.20117 10.8008C2.89388 10.2266 3.69141 9.81185 4.59375 9.55664C4.70312 8.20768 5.04492 6.95443 5.61914 5.79688C6.20247 4.63932 6.95898 3.6276 7.88867 2.76172C8.81836 1.89583 9.87565 1.22135 11.0605 0.738281C12.2546 0.246094 13.5169 0 14.8477 0C16.8802 0 18.6986 0.519531 20.3027 1.55859C21.916 2.58854 23.1738 4.01042 24.0762 5.82422C25.3066 5.8151 26.4414 6.00651 27.4805 6.39844C28.5286 6.79036 29.4401 7.3418 30.2148 8.05273C30.9896 8.76367 31.5911 9.59766 32.0195 10.5547C32.457 11.5117 32.6758 12.5553 32.6758 13.6855C32.6758 14.7975 32.4661 15.8366 32.0469 16.8027C31.6367 17.7689 31.0579 18.612 30.3105 19.332C29.5723 20.0521 28.7064 20.6126 27.7129 21.0137C26.7285 21.4238 25.6621 21.6289 24.5137 21.6289H6.69922Z" fill="white"/>
</svg>
