<svg width="32" height="31" viewBox="0 0 32 31" fill="none" xmlns="http://www.w3.org/2000/svg">
<path d="M6.42578 20.7129C5.06771 20.7129 3.91016 20.4531 2.95312 19.9336C1.99609 19.4049 1.26237 18.6986 0.751953 17.8145C0.250651 16.9212 0 15.9368 0 14.8613C0 13.8952 0.191406 13.0247 0.574219 12.25C0.957031 11.4753 1.47656 10.819 2.13281 10.2812C2.78906 9.73438 3.5319 9.34245 4.36133 9.10547C4.4707 7.83854 4.79883 6.65365 5.3457 5.55078C5.90169 4.44792 6.6263 3.48177 7.51953 2.65234C8.41276 1.82292 9.42448 1.17578 10.5547 0.710938C11.694 0.236979 12.9062 0 14.1914 0C15.513 0 16.7344 0.227865 17.8555 0.683594C18.9766 1.13932 19.9746 1.78646 20.8496 2.625C21.7337 3.45443 22.4583 4.42969 23.0234 5.55078C24.181 5.55078 25.2565 5.73763 26.25 6.11133C27.2435 6.48503 28.1094 7.01367 28.8477 7.69727C29.5951 8.37174 30.1738 9.16927 30.584 10.0898C31.0033 11.0013 31.2129 12.0039 31.2129 13.0977C31.2129 14.1458 31.0169 15.1302 30.625 16.0508C30.2422 16.9714 29.6953 17.7826 28.9844 18.4844C28.2826 19.1862 27.4531 19.7331 26.4961 20.125C25.5482 20.5169 24.5137 20.7129 23.3926 20.7129H6.42578ZM24.6367 23.8848C24.8828 23.8848 25.0879 23.9668 25.252 24.1309C25.416 24.2949 25.498 24.5 25.498 24.7461C25.498 24.9922 25.416 25.1973 25.252 25.3613C25.0879 25.5254 24.8828 25.6074 24.6367 25.6074H6.84961C6.61263 25.6074 6.40755 25.5254 6.23438 25.3613C6.07031 25.1973 5.98828 24.9922 5.98828 24.7461C5.98828 24.5 6.07031 24.2949 6.23438 24.1309C6.40755 23.9668 6.61263 23.8848 6.84961 23.8848H24.6367ZM24.6367 28.5195C24.8828 28.5195 25.0879 28.6016 25.252 28.7656C25.416 28.9297 25.498 29.1348 25.498 29.3809C25.498 29.627 25.416 29.832 25.252 29.9961C25.0879 30.1693 24.8828 30.2559 24.6367 30.2559H6.84961C6.61263 30.2559 6.40755 30.1693 6.23438 29.9961C6.07031 29.832 5.98828 29.627 5.98828 29.3809C5.98828 29.1348 6.07031 28.9297 6.23438 28.7656C6.40755 28.6016 6.61263 28.5195 6.84961 28.5195H24.6367Z" fill="white"/>
</svg>
