<svg width="28" height="28" viewBox="0 0 28 28" fill="none" xmlns="http://www.w3.org/2000/svg">
<path d="M13.9453 27.8906C12.0221 27.8906 10.2174 27.526 8.53125 26.7969C6.84505 26.0768 5.36393 25.0788 4.08789 23.8027C2.81185 22.5267 1.80924 21.0456 1.08008 19.3594C0.360026 17.6732 0 15.8685 0 13.9453C0 12.0221 0.360026 10.2174 1.08008 8.53125C1.80924 6.84505 2.81185 5.36393 4.08789 4.08789C5.36393 2.80273 6.84505 1.80013 8.53125 1.08008C10.2174 0.360026 12.0221 0 13.9453 0C15.8685 0 17.6732 0.360026 19.3594 1.08008C21.0456 1.80013 22.5267 2.80273 23.8027 4.08789C25.0788 5.36393 26.0768 6.84505 26.7969 8.53125C27.526 10.2174 27.8906 12.0221 27.8906 13.9453C27.8906 15.8685 27.526 17.6732 26.7969 19.3594C26.0768 21.0456 25.0788 22.5267 23.8027 23.8027C22.5267 25.0788 21.0456 26.0768 19.3594 26.7969C17.6732 27.526 15.8685 27.8906 13.9453 27.8906ZM13.9453 25.5664C15.5495 25.5664 17.0534 25.2656 18.457 24.6641C19.8607 24.0625 21.0957 23.2285 22.1621 22.1621C23.2285 21.0957 24.0625 19.8607 24.6641 18.457C25.2656 17.0534 25.5664 15.5495 25.5664 13.9453C25.5664 12.3411 25.2656 10.8372 24.6641 9.43359C24.0625 8.02083 23.2285 6.78581 22.1621 5.72852C21.0957 4.66211 19.8607 3.82812 18.457 3.22656C17.0534 2.625 15.5495 2.32422 13.9453 2.32422C12.3411 2.32422 10.8372 2.625 9.43359 3.22656C8.02995 3.82812 6.79492 4.66211 5.72852 5.72852C4.66211 6.78581 3.82812 8.02083 3.22656 9.43359C2.625 10.8372 2.32422 12.3411 2.32422 13.9453C2.32422 15.5495 2.625 17.0534 3.22656 18.457C3.82812 19.8607 4.66211 21.0957 5.72852 22.1621C6.79492 23.2285 8.02995 24.0625 9.43359 24.6641C10.8372 25.2656 12.3411 25.5664 13.9453 25.5664ZM7.56055 15.9141C7.01367 15.9141 6.54427 15.7227 6.15234 15.3398C5.76953 14.9479 5.57812 14.4785 5.57812 13.9316C5.57812 13.3848 5.76953 12.9199 6.15234 12.5371C6.54427 12.1452 7.01367 11.9492 7.56055 11.9492C8.09831 11.9492 8.56315 12.1452 8.95508 12.5371C9.34701 12.9199 9.54297 13.3848 9.54297 13.9316C9.54297 14.4785 9.34701 14.9479 8.95508 15.3398C8.57227 15.7227 8.10742 15.9141 7.56055 15.9141ZM13.9316 15.9141C13.3939 15.9141 12.929 15.7227 12.5371 15.3398C12.1543 14.9479 11.9629 14.4785 11.9629 13.9316C11.9629 13.3848 12.1543 12.9199 12.5371 12.5371C12.929 12.1452 13.3939 11.9492 13.9316 11.9492C14.4785 11.9492 14.9434 12.1452 15.3262 12.5371C15.7181 12.9199 15.9141 13.3848 15.9141 13.9316C15.9141 14.4785 15.7181 14.9479 15.3262 15.3398C14.9434 15.7227 14.4785 15.9141 13.9316 15.9141ZM20.3164 15.9141C19.7695 15.9141 19.3001 15.7227 18.9082 15.3398C18.5254 14.9479 18.334 14.4785 18.334 13.9316C18.334 13.3848 18.5254 12.9199 18.9082 12.5371C19.3001 12.1452 19.7695 11.9492 20.3164 11.9492C20.8633 11.9492 21.3281 12.1452 21.7109 12.5371C22.1029 12.9199 22.2988 13.3848 22.2988 13.9316C22.2988 14.4785 22.1029 14.9479 21.7109 15.3398C21.3281 15.7227 20.8633 15.9141 20.3164 15.9141Z" fill="#007AFF"/>
</svg>
