<svg width="28" height="28" viewBox="0 0 28 28" fill="none" xmlns="http://www.w3.org/2000/svg">
<path d="M13.9453 27.125C12.9974 27.125 12.1042 26.7969 11.2656 26.1406C10.4362 25.4844 9.70247 24.5638 9.06445 23.3789C8.43555 22.194 7.9388 20.804 7.57422 19.209C7.21875 17.6048 7.04102 15.8594 7.04102 13.9727C7.04102 12.0859 7.21875 10.3405 7.57422 8.73633C7.9388 7.12305 8.43555 5.72396 9.06445 4.53906C9.69336 3.34505 10.4225 2.41992 11.252 1.76367C12.0905 1.10742 12.9883 0.779297 13.9453 0.779297C14.9023 0.779297 15.7956 1.10742 16.625 1.76367C17.4635 2.41992 18.1973 3.34505 18.8262 4.53906C19.4642 5.72396 19.9609 7.12305 20.3164 8.73633C20.6719 10.3405 20.8496 12.0859 20.8496 13.9727C20.8496 15.8594 20.6673 17.6048 20.3027 19.209C19.9473 20.804 19.4505 22.194 18.8125 23.3789C18.1836 24.5638 17.4499 25.4844 16.6113 26.1406C15.7819 26.7969 14.8932 27.125 13.9453 27.125ZM13.9453 2.43359C13.2799 2.43359 12.6419 2.74349 12.0312 3.36328C11.4206 3.97396 10.8783 4.8125 10.4043 5.87891C9.93034 6.94531 9.55664 8.17578 9.2832 9.57031C9.00977 10.9557 8.87305 12.4232 8.87305 13.9727C8.87305 15.5039 9.00977 16.9577 9.2832 18.334C9.55664 19.7103 9.93034 20.9362 10.4043 22.0117C10.8783 23.0781 11.4206 23.9167 12.0312 24.5273C12.6419 25.1471 13.2799 25.457 13.9453 25.457C14.6107 25.457 15.2487 25.1471 15.8594 24.5273C16.4701 23.9167 17.0124 23.0781 17.4863 22.0117C17.9603 20.9362 18.334 19.7103 18.6074 18.334C18.8809 16.9577 19.0176 15.5039 19.0176 13.9727C19.0176 12.4232 18.8809 10.9557 18.6074 9.57031C18.334 8.17578 17.9603 6.94531 17.4863 5.87891C17.0124 4.8125 16.4701 3.97396 15.8594 3.36328C15.2487 2.74349 14.6107 2.43359 13.9453 2.43359ZM13.0566 0.970703H14.8477V26.8652H13.0566V0.970703ZM13.9453 19.0859C15.349 19.0859 16.6797 19.2044 17.9375 19.4414C19.1953 19.6693 20.3255 20.002 21.3281 20.4395C22.3398 20.8678 23.1647 21.3737 23.8027 21.957L22.4219 23.0918C21.8203 22.6178 21.0957 22.2168 20.248 21.8887C19.4095 21.5514 18.457 21.3008 17.3906 21.1367C16.3333 20.9635 15.1849 20.877 13.9453 20.877C12.7057 20.877 11.5527 20.9635 10.4863 21.1367C9.42904 21.3008 8.47656 21.5514 7.62891 21.8887C6.79036 22.2168 6.07031 22.6178 5.46875 23.0918L4.08789 21.957C4.72591 21.3737 5.54622 20.8678 6.54883 20.4395C7.56055 20.002 8.69531 19.6693 9.95312 19.4414C11.2109 19.2044 12.5417 19.0859 13.9453 19.0859ZM26.5645 13.043V14.834H1.32617V13.043H26.5645ZM13.9453 8.87305C12.5417 8.87305 11.2109 8.75911 9.95312 8.53125C8.69531 8.29427 7.56055 7.96159 6.54883 7.5332C5.54622 7.0957 4.72591 6.58529 4.08789 6.00195L5.46875 4.86719C6.07031 5.34115 6.79036 5.74674 7.62891 6.08398C8.47656 6.41211 9.42904 6.66276 10.4863 6.83594C11.5527 7 12.7057 7.08203 13.9453 7.08203C15.1849 7.08203 16.3333 7 17.3906 6.83594C18.457 6.66276 19.4095 6.41211 20.248 6.08398C21.0957 5.74674 21.8203 5.34115 22.4219 4.86719L23.8027 6.00195C23.1647 6.58529 22.3398 7.0957 21.3281 7.5332C20.3255 7.96159 19.1953 8.29427 17.9375 8.53125C16.6797 8.75911 15.349 8.87305 13.9453 8.87305ZM13.9453 27.8906C12.0221 27.8906 10.2174 27.526 8.53125 26.7969C6.84505 26.0768 5.36393 25.0788 4.08789 23.8027C2.81185 22.5267 1.80924 21.0456 1.08008 19.3594C0.360026 17.6732 0 15.8685 0 13.9453C0 12.0221 0.360026 10.2174 1.08008 8.53125C1.80924 6.84505 2.81185 5.36393 4.08789 4.08789C5.36393 2.80273 6.84505 1.80013 8.53125 1.08008C10.2174 0.360026 12.0221 0 13.9453 0C15.8685 0 17.6732 0.360026 19.3594 1.08008C21.0456 1.80013 22.5267 2.80273 23.8027 4.08789C25.0788 5.36393 26.0768 6.84505 26.7969 8.53125C27.526 10.2174 27.8906 12.0221 27.8906 13.9453C27.8906 15.8685 27.526 17.6732 26.7969 19.3594C26.0768 21.0456 25.0788 22.5267 23.8027 23.8027C22.5267 25.0788 21.0456 26.0768 19.3594 26.7969C17.6732 27.526 15.8685 27.8906 13.9453 27.8906ZM13.9453 26.0312C15.6133 26.0312 17.1764 25.7168 18.6348 25.0879C20.0931 24.459 21.3783 23.5931 22.4902 22.4902C23.6022 21.3783 24.4681 20.0931 25.0879 18.6348C25.7168 17.1764 26.0312 15.6133 26.0312 13.9453C26.0312 12.2773 25.7168 10.7142 25.0879 9.25586C24.4681 7.78841 23.6022 6.50326 22.4902 5.40039C21.3783 4.28841 20.0931 3.42253 18.6348 2.80273C17.1764 2.17383 15.6133 1.85938 13.9453 1.85938C12.2773 1.85938 10.7142 2.17383 9.25586 2.80273C7.79753 3.42253 6.51237 4.28841 5.40039 5.40039C4.28841 6.50326 3.41797 7.78841 2.78906 9.25586C2.16927 10.7142 1.85938 12.2773 1.85938 13.9453C1.85938 15.6133 2.16927 17.1764 2.78906 18.6348C3.41797 20.0931 4.28841 21.3783 5.40039 22.4902C6.51237 23.5931 7.79753 24.459 9.25586 25.0879C10.7142 25.7168 12.2773 26.0312 13.9453 26.0312Z" fill="#999999"/>
</svg>
