<svg width="28" height="26" viewBox="0 0 28 26" fill="none" xmlns="http://www.w3.org/2000/svg">
<path d="M0 8.25781C0 7.04557 0.191406 5.93815 0.574219 4.93555C0.966146 3.92383 1.51302 3.04883 2.21484 2.31055C2.91667 1.57227 3.73698 1.0026 4.67578 0.601562C5.6237 0.200521 6.64909 0 7.75195 0C9.01888 0 10.1536 0.277995 11.1562 0.833984C12.1589 1.38997 12.9655 2.12826 13.5762 3.04883C14.196 2.12826 15.0026 1.38997 15.9961 0.833984C16.9987 0.277995 18.1335 0 19.4004 0C20.5124 0 21.5378 0.200521 22.4766 0.601562C23.4245 1.0026 24.2448 1.57227 24.9375 2.31055C25.6393 3.04883 26.1816 3.92383 26.5645 4.93555C26.9564 5.93815 27.1523 7.04557 27.1523 8.25781C27.1523 10.1992 26.6374 12.1224 25.6074 14.0273C24.5866 15.9232 23.1328 17.7734 21.2461 19.5781C19.3685 21.3737 17.1445 23.0918 14.5742 24.7324C14.4284 24.8236 14.2598 24.9056 14.0684 24.9785C13.8861 25.0605 13.722 25.1016 13.5762 25.1016C13.4395 25.1016 13.2754 25.0605 13.084 24.9785C12.9017 24.9056 12.7376 24.8236 12.5918 24.7324C10.0215 23.0918 7.79297 21.3737 5.90625 19.5781C4.01953 17.7734 2.5612 15.9232 1.53125 14.0273C0.510417 12.1224 0 10.1992 0 8.25781ZM2.20117 8.25781C2.20117 9.52474 2.50651 10.8099 3.11719 12.1133C3.72786 13.4076 4.55729 14.679 5.60547 15.9277C6.65365 17.1764 7.83854 18.3704 9.16016 19.5098C10.4909 20.64 11.8717 21.679 13.3027 22.627C13.4486 22.7363 13.5397 22.791 13.5762 22.791C13.6126 22.791 13.7083 22.7363 13.8633 22.627C15.2943 21.679 16.6706 20.64 17.9922 19.5098C19.3229 18.3704 20.5078 17.1764 21.5469 15.9277C22.5951 14.679 23.4245 13.4076 24.0352 12.1133C24.6458 10.8099 24.9512 9.52474 24.9512 8.25781C24.9512 7.04557 24.7096 5.98828 24.2266 5.08594C23.7526 4.17448 23.0964 3.4681 22.2578 2.9668C21.4284 2.45638 20.485 2.20117 19.4277 2.20117C18.571 2.20117 17.8327 2.35612 17.2129 2.66602C16.6022 2.9668 16.0736 3.34961 15.627 3.81445C15.1895 4.27018 14.8158 4.72135 14.5059 5.16797C14.3053 5.43229 14.1413 5.61458 14.0137 5.71484C13.8861 5.8151 13.7402 5.86523 13.5762 5.86523C13.4121 5.86523 13.2617 5.81966 13.125 5.72852C12.9974 5.62826 12.8379 5.44141 12.6465 5.16797C12.3548 4.71224 11.9902 4.25651 11.5527 3.80078C11.1152 3.34505 10.582 2.9668 9.95312 2.66602C9.32422 2.35612 8.58138 2.20117 7.72461 2.20117C6.66732 2.20117 5.7194 2.45638 4.88086 2.9668C4.05143 3.4681 3.39518 4.17448 2.91211 5.08594C2.43815 5.98828 2.20117 7.04557 2.20117 8.25781Z" fill="#007AFF"/>
</svg>
