<svg width="26" height="26" viewBox="0 0 26 26" fill="none" xmlns="http://www.w3.org/2000/svg">
<path d="M4.29297 25.1699C2.86198 25.1699 1.78646 24.8145 1.06641 24.1035C0.355469 23.4017 0 22.349 0 20.9453V4.23828C0 2.82552 0.355469 1.76823 1.06641 1.06641C1.78646 0.355469 2.86198 0 4.29297 0H20.877C22.3079 0 23.3789 0.355469 24.0898 1.06641C24.8099 1.77734 25.1699 2.83464 25.1699 4.23828V20.9453C25.1699 22.349 24.8099 23.4017 24.0898 24.1035C23.3789 24.8145 22.3079 25.1699 20.877 25.1699H4.29297ZM6.15234 3.69141C5.58724 3.69141 5.11784 3.88737 4.74414 4.2793C4.37956 4.67122 4.19727 5.16797 4.19727 5.76953C4.19727 6.21615 4.30208 6.64453 4.51172 7.05469C4.72135 7.46484 4.99023 7.85677 5.31836 8.23047C5.6556 8.59505 6.01107 8.93229 6.38477 9.24219C6.76758 9.55208 7.1276 9.82552 7.46484 10.0625C7.52865 10.099 7.59245 10.1354 7.65625 10.1719C7.72005 10.1992 7.77018 10.2129 7.80664 10.2129C7.86133 10.2129 7.91602 10.1992 7.9707 10.1719C8.02539 10.1354 8.08464 10.099 8.14844 10.0625C8.49479 9.84375 8.85482 9.58398 9.22852 9.2832C9.61133 8.97331 9.9668 8.63151 10.2949 8.25781C10.623 7.88411 10.8874 7.48763 11.0879 7.06836C11.2975 6.64909 11.4023 6.21615 11.4023 5.76953C11.4023 5.16797 11.2155 4.67122 10.8418 4.2793C10.4681 3.88737 9.99414 3.69141 9.41992 3.69141C9.06445 3.69141 8.74544 3.79167 8.46289 3.99219C8.18945 4.18359 7.96615 4.43424 7.79297 4.74414C7.62891 4.43424 7.4056 4.18359 7.12305 3.99219C6.84961 3.79167 6.52604 3.69141 6.15234 3.69141ZM5.05859 16.3242H18.7988C19.0358 16.3242 19.2318 16.2422 19.3867 16.0781C19.5508 15.9141 19.6328 15.7135 19.6328 15.4766C19.6328 15.2396 19.5508 15.0436 19.3867 14.8887C19.2318 14.7246 19.0358 14.6426 18.7988 14.6426H5.05859C4.8125 14.6426 4.60742 14.7246 4.44336 14.8887C4.2793 15.0436 4.19727 15.2396 4.19727 15.4766C4.19727 15.7135 4.2793 15.9141 4.44336 16.0781C4.60742 16.2422 4.8125 16.3242 5.05859 16.3242ZM5.05859 21H15.1895C15.4355 21 15.6361 20.9225 15.791 20.7676C15.9551 20.6035 16.0371 20.403 16.0371 20.166C16.0371 19.929 15.9551 19.7285 15.791 19.5645C15.6361 19.4004 15.4355 19.3184 15.1895 19.3184H5.05859C4.8125 19.3184 4.60742 19.4004 4.44336 19.5645C4.2793 19.7285 4.19727 19.929 4.19727 20.166C4.19727 20.403 4.2793 20.6035 4.44336 20.7676C4.60742 20.9225 4.8125 21 5.05859 21Z" fill="#999999"/>
</svg>
