<svg width="28" height="28" viewBox="0 0 28 28" fill="none" xmlns="http://www.w3.org/2000/svg">
<path d="M13.9453 27.8906C12.0221 27.8906 10.2174 27.526 8.53125 26.7969C6.84505 26.0768 5.36393 25.0788 4.08789 23.8027C2.81185 22.5267 1.80924 21.0456 1.08008 19.3594C0.360026 17.6732 0 15.8685 0 13.9453C0 12.0221 0.360026 10.2174 1.08008 8.53125C1.80924 6.84505 2.81185 5.36393 4.08789 4.08789C5.36393 2.80273 6.84505 1.80013 8.53125 1.08008C10.2174 0.360026 12.0221 0 13.9453 0C15.8685 0 17.6732 0.360026 19.3594 1.08008C21.0456 1.80013 22.5267 2.80273 23.8027 4.08789C25.0788 5.36393 26.0768 6.84505 26.7969 8.53125C27.526 10.2174 27.8906 12.0221 27.8906 13.9453C27.8906 15.8685 27.526 17.6732 26.7969 19.3594C26.0768 21.0456 25.0788 22.5267 23.8027 23.8027C22.5267 25.0788 21.0456 26.0768 19.3594 26.7969C17.6732 27.526 15.8685 27.8906 13.9453 27.8906ZM13.9453 25.5664C15.5495 25.5664 17.0534 25.2656 18.457 24.6641C19.8607 24.0625 21.0957 23.2285 22.1621 22.1621C23.2285 21.0957 24.0625 19.8607 24.6641 18.457C25.2656 17.0534 25.5664 15.5495 25.5664 13.9453C25.5664 12.3411 25.2656 10.8372 24.6641 9.43359C24.0625 8.02083 23.2285 6.78581 22.1621 5.72852C21.0957 4.66211 19.8607 3.82812 18.457 3.22656C17.0534 2.625 15.5495 2.32422 13.9453 2.32422C12.3411 2.32422 10.8372 2.625 9.43359 3.22656C8.02995 3.82812 6.79492 4.66211 5.72852 5.72852C4.66211 6.78581 3.82812 8.02083 3.22656 9.43359C2.625 10.8372 2.32422 12.3411 2.32422 13.9453C2.32422 15.5495 2.625 17.0534 3.22656 18.457C3.82812 19.8607 4.66211 21.0957 5.72852 22.1621C6.79492 23.2285 8.02995 24.0625 9.43359 24.6641C10.8372 25.2656 12.3411 25.5664 13.9453 25.5664ZM11.5527 21.5879C11.2702 21.5879 11.0332 21.4967 10.8418 21.3145C10.6504 21.1322 10.5547 20.9043 10.5547 20.6309C10.5547 20.3574 10.6504 20.1296 10.8418 19.9473C11.0332 19.765 11.2702 19.6738 11.5527 19.6738H13.248V13.3984H11.7852C11.5026 13.3984 11.2656 13.3073 11.0742 13.125C10.8828 12.9427 10.7871 12.7148 10.7871 12.4414C10.7871 12.168 10.8828 11.9401 11.0742 11.7578C11.2656 11.5755 11.5026 11.4844 11.7852 11.4844H14.3555C14.7018 11.4844 14.9661 11.5983 15.1484 11.8262C15.3307 12.0449 15.4219 12.3411 15.4219 12.7148V19.6738H17.1172C17.3997 19.6738 17.6367 19.765 17.8281 19.9473C18.0195 20.1296 18.1152 20.3574 18.1152 20.6309C18.1152 20.9043 18.0195 21.1322 17.8281 21.3145C17.6367 21.4967 17.3997 21.5879 17.1172 21.5879H11.5527ZM13.8223 9.20117C13.3301 9.20117 12.9108 9.02799 12.5645 8.68164C12.2181 8.33529 12.0449 7.91602 12.0449 7.42383C12.0449 6.92253 12.2181 6.4987 12.5645 6.15234C12.9108 5.80599 13.3301 5.63281 13.8223 5.63281C14.3236 5.63281 14.7428 5.80599 15.0801 6.15234C15.4264 6.4987 15.5996 6.92253 15.5996 7.42383C15.5996 7.91602 15.4264 8.33529 15.0801 8.68164C14.7428 9.02799 14.3236 9.20117 13.8223 9.20117Z" fill="#007AFF"/>
</svg>
