<svg width="27" height="27" viewBox="0 0 27 27" fill="none" xmlns="http://www.w3.org/2000/svg">
<path d="M0 10.9102C0 9.40625 0.282552 7.99805 0.847656 6.68555C1.41276 5.36393 2.19661 4.20182 3.19922 3.19922C4.20182 2.19661 5.35938 1.41276 6.67188 0.847656C7.99349 0.282552 9.40625 0 10.9102 0C12.4141 0 13.8223 0.282552 15.1348 0.847656C16.4564 1.41276 17.6185 2.19661 18.6211 3.19922C19.6237 4.20182 20.4076 5.36393 20.9727 6.68555C21.5378 7.99805 21.8203 9.40625 21.8203 10.9102C21.8203 12.1589 21.6198 13.3438 21.2188 14.4648C20.8268 15.5859 20.2799 16.6022 19.5781 17.5137L26.2637 24.2402C26.4095 24.3861 26.5189 24.5547 26.5918 24.7461C26.6738 24.9375 26.7148 25.1426 26.7148 25.3613C26.7148 25.6621 26.6465 25.9355 26.5098 26.1816C26.3822 26.4277 26.1999 26.6191 25.9629 26.7559C25.7259 26.9017 25.4525 26.9746 25.1426 26.9746C24.9238 26.9746 24.7142 26.9336 24.5137 26.8516C24.3223 26.7786 24.1445 26.6647 23.9805 26.5098L17.2539 19.7695C16.3607 20.4076 15.3763 20.9089 14.3008 21.2734C13.2253 21.638 12.0951 21.8203 10.9102 21.8203C9.40625 21.8203 7.99349 21.5378 6.67188 20.9727C5.35938 20.4076 4.20182 19.6237 3.19922 18.6211C2.19661 17.6185 1.41276 16.4609 0.847656 15.1484C0.282552 13.8268 0 12.4141 0 10.9102ZM2.33789 10.9102C2.33789 12.0951 2.55664 13.207 2.99414 14.2461C3.44076 15.276 4.05599 16.1829 4.83984 16.9668C5.63281 17.7507 6.54427 18.3659 7.57422 18.8125C8.61328 19.2591 9.72526 19.4824 10.9102 19.4824C12.0951 19.4824 13.2025 19.2591 14.2324 18.8125C15.2715 18.3659 16.1829 17.7507 16.9668 16.9668C17.7507 16.1829 18.3659 15.276 18.8125 14.2461C19.2591 13.207 19.4824 12.0951 19.4824 10.9102C19.4824 9.72526 19.2591 8.61784 18.8125 7.58789C18.3659 6.54883 17.7507 5.63737 16.9668 4.85352C16.1829 4.06055 15.2715 3.44531 14.2324 3.00781C13.2025 2.5612 12.0951 2.33789 10.9102 2.33789C9.72526 2.33789 8.61328 2.5612 7.57422 3.00781C6.54427 3.44531 5.63281 4.06055 4.83984 4.85352C4.05599 5.63737 3.44076 6.54883 2.99414 7.58789C2.55664 8.61784 2.33789 9.72526 2.33789 10.9102Z" fill="#999999"/>
</svg>
