<svg width="28" height="28" viewBox="0 0 28 28" fill="none" xmlns="http://www.w3.org/2000/svg">
<path d="M13.9453 27.8906C12.0221 27.8906 10.2174 27.526 8.53125 26.7969C6.84505 26.0768 5.36393 25.0788 4.08789 23.8027C2.81185 22.5176 1.80924 21.0365 1.08008 19.3594C0.360026 17.6732 0 15.8685 0 13.9453C0 12.0221 0.360026 10.2174 1.08008 8.53125C1.80924 6.84505 2.81185 5.36393 4.08789 4.08789C5.36393 2.81185 6.84505 1.8138 8.53125 1.09375C10.2174 0.364583 12.0221 0 13.9453 0C15.8685 0 17.6732 0.364583 19.3594 1.09375C21.0456 1.8138 22.5267 2.81185 23.8027 4.08789C25.0788 5.36393 26.0768 6.84505 26.7969 8.53125C27.526 10.2174 27.8906 12.0221 27.8906 13.9453C27.8906 15.8685 27.526 17.6732 26.7969 19.3594C26.0768 21.0365 25.0788 22.5176 23.8027 23.8027C22.5267 25.0788 21.0456 26.0768 19.3594 26.7969C17.6732 27.526 15.8685 27.8906 13.9453 27.8906ZM10.3633 22.4082H17.541C17.7415 22.4082 17.9193 22.3353 18.0742 22.1895C18.2292 22.0345 18.3066 21.8568 18.3066 21.6562C18.3066 21.4557 18.2292 21.278 18.0742 21.123C17.9284 20.9681 17.7507 20.8906 17.541 20.8906H14.7246V19.4688C15.6543 19.3594 16.4701 19.0677 17.1719 18.5938C17.8737 18.1107 18.4206 17.4909 18.8125 16.7344C19.2044 15.9688 19.4004 15.1074 19.4004 14.1504V12.332C19.4004 12.1406 19.3229 11.972 19.168 11.8262C19.0221 11.6712 18.849 11.5938 18.6484 11.5938C18.4479 11.5938 18.2747 11.6712 18.1289 11.8262C17.9831 11.972 17.9102 12.1406 17.9102 12.332V14.1504C17.9102 14.916 17.7415 15.5951 17.4043 16.1875C17.0671 16.7799 16.5977 17.2448 15.9961 17.582C15.4036 17.9193 14.7201 18.0879 13.9453 18.0879C13.1706 18.0879 12.487 17.9193 11.8945 17.582C11.3021 17.2448 10.8372 16.7799 10.5 16.1875C10.1628 15.5951 9.99414 14.916 9.99414 14.1504V12.332C9.99414 12.1406 9.92122 11.972 9.77539 11.8262C9.62956 11.6712 9.45638 11.5938 9.25586 11.5938C9.05534 11.5938 8.8776 11.6712 8.72266 11.8262C8.57682 11.972 8.50391 12.1406 8.50391 12.332V14.1504C8.50391 15.1074 8.69987 15.9688 9.0918 16.7344C9.48372 17.4909 10.0306 18.1107 10.7324 18.5938C11.4342 19.0768 12.2546 19.3685 13.1934 19.4688V20.8906H10.3633C10.1628 20.8906 9.98503 20.9681 9.83008 21.123C9.67513 21.278 9.59766 21.4557 9.59766 21.6562C9.59766 21.8659 9.67513 22.0436 9.83008 22.1895C9.98503 22.3353 10.1628 22.4082 10.3633 22.4082ZM13.9453 16.666C14.638 16.666 15.1986 16.429 15.627 15.9551C16.0645 15.472 16.2832 14.8704 16.2832 14.1504V8.10742C16.2832 7.39648 16.0645 6.80859 15.627 6.34375C15.1986 5.86979 14.638 5.63281 13.9453 5.63281C13.2526 5.63281 12.6875 5.86979 12.25 6.34375C11.8216 6.80859 11.6074 7.39648 11.6074 8.10742V14.1504C11.6074 14.8704 11.8216 15.472 12.25 15.9551C12.6875 16.429 13.2526 16.666 13.9453 16.666Z" fill="#999999"/>
</svg>
