<svg width="28" height="28" viewBox="0 0 28 28" fill="none" xmlns="http://www.w3.org/2000/svg">
<path d="M13.0566 7.73828C13.1569 7.44661 13.3301 7.25065 13.5762 7.15039C13.8314 7.05013 14.082 7.05013 14.3281 7.15039C14.5742 7.25065 14.7474 7.44661 14.8477 7.73828L17.418 15.4082H10.5L13.0566 7.73828ZM19.5098 25.5527C19.3639 25.5618 19.2272 25.5345 19.0996 25.4707C18.9811 25.416 18.8763 25.3385 18.7852 25.2383C18.7031 25.138 18.6484 25.015 18.6211 24.8691L16.7754 16.2012L16.9668 16.3242H10.9512L11.1289 16.2012L9.2832 24.8691C9.23763 25.1061 9.11003 25.2884 8.90039 25.416C8.69987 25.5436 8.48112 25.5846 8.24414 25.5391C8.00716 25.5026 7.82031 25.3796 7.68359 25.1699C7.54688 24.9694 7.5013 24.7507 7.54688 24.5137L9.41992 15.7227C9.49284 15.3945 9.65234 15.1211 9.89844 14.9023C10.1445 14.6745 10.4316 14.5605 10.7598 14.5605H17.1445C17.4727 14.5605 17.7598 14.6745 18.0059 14.9023C18.2611 15.1211 18.4206 15.3991 18.4844 15.7363L20.3574 24.5137C20.4121 24.7962 20.3346 25.0378 20.125 25.2383C19.9154 25.4479 19.7103 25.5527 19.5098 25.5527ZM13.9453 27.8906C12.0221 27.8906 10.2174 27.526 8.53125 26.7969C6.84505 26.0768 5.36393 25.0788 4.08789 23.8027C2.81185 22.5267 1.80924 21.0456 1.08008 19.3594C0.360026 17.6732 0 15.8685 0 13.9453C0 12.0221 0.360026 10.2174 1.08008 8.53125C1.80924 6.84505 2.81185 5.36393 4.08789 4.08789C5.36393 2.80273 6.84505 1.80013 8.53125 1.08008C10.2174 0.360026 12.0221 0 13.9453 0C15.8685 0 17.6732 0.360026 19.3594 1.08008C21.0456 1.80013 22.5267 2.80273 23.8027 4.08789C25.0788 5.36393 26.0768 6.84505 26.7969 8.53125C27.526 10.2174 27.8906 12.0221 27.8906 13.9453C27.8906 15.8685 27.526 17.6732 26.7969 19.3594C26.0768 21.0456 25.0788 22.5267 23.8027 23.8027C22.5267 25.0788 21.0456 26.0768 19.3594 26.7969C17.6732 27.526 15.8685 27.8906 13.9453 27.8906ZM13.9453 25.5664C15.5495 25.5664 17.0534 25.2656 18.457 24.6641C19.8607 24.0625 21.0957 23.2285 22.1621 22.1621C23.2285 21.0957 24.0625 19.8607 24.6641 18.457C25.2656 17.0534 25.5664 15.5495 25.5664 13.9453C25.5664 12.3411 25.2656 10.8372 24.6641 9.43359C24.0625 8.02083 23.2285 6.78581 22.1621 5.72852C21.0957 4.66211 19.8607 3.82812 18.457 3.22656C17.0534 2.625 15.5495 2.32422 13.9453 2.32422C12.3411 2.32422 10.8372 2.625 9.43359 3.22656C8.02995 3.82812 6.79492 4.66211 5.72852 5.72852C4.66211 6.78581 3.82812 8.02083 3.22656 9.43359C2.625 10.8372 2.32422 12.3411 2.32422 13.9453C2.32422 15.5495 2.625 17.0534 3.22656 18.457C3.82812 19.8607 4.66211 21.0957 5.72852 22.1621C6.79492 23.2285 8.02995 24.0625 9.43359 24.6641C10.8372 25.2656 12.3411 25.5664 13.9453 25.5664Z" fill="#007AFF"/>
</svg>
