<svg width="35" height="28" viewBox="0 0 35 28" fill="none" xmlns="http://www.w3.org/2000/svg">
<path d="M15.832 17.2676C16.625 17.2676 17.304 16.9805 17.8691 16.4062C18.4434 15.832 18.7305 15.1439 18.7305 14.3418C18.7305 13.8132 18.5983 13.3301 18.334 12.8926C18.0788 12.446 17.7279 12.0905 17.2812 11.8262C16.8438 11.5527 16.3607 11.416 15.832 11.416C15.0299 11.416 14.3418 11.7077 13.7676 12.291C13.2025 12.8652 12.9199 13.5488 12.9199 14.3418C12.9199 15.1439 13.2025 15.832 13.7676 16.4062C14.3418 16.9805 15.0299 17.2676 15.832 17.2676ZM10.5273 25.7852H30.2559C30.8301 25.7852 31.2904 25.612 31.6367 25.2656C31.9922 24.9193 32.1699 24.4544 32.1699 23.8711V22.1758L26.8516 17.2129C26.5781 16.9668 26.2819 16.7845 25.9629 16.666C25.653 16.5384 25.334 16.4746 25.0059 16.4746C24.6595 16.4746 24.3314 16.5339 24.0215 16.6523C23.7207 16.7617 23.4245 16.944 23.1328 17.1992L17.5957 22.1348L15.3535 20.125C15.1074 19.888 14.8431 19.7148 14.5605 19.6055C14.278 19.487 13.9863 19.4277 13.6855 19.4277C13.4212 19.4277 13.1523 19.487 12.8789 19.6055C12.6146 19.7148 12.3548 19.8835 12.0996 20.1113L8.61328 23.2422V23.8574C8.61328 24.4408 8.78646 24.9056 9.13281 25.252C9.47917 25.6074 9.94401 25.7852 10.5273 25.7852ZM11.0469 27.6992C9.61589 27.6992 8.54036 27.3438 7.82031 26.6328C7.10938 25.931 6.75391 24.8737 6.75391 23.4609V10.5684C6.75391 9.1556 7.10938 8.09831 7.82031 7.39648C8.54036 6.68555 9.61589 6.33008 11.0469 6.33008H29.7227C31.1445 6.33008 32.2155 6.68555 32.9355 7.39648C33.6556 8.10742 34.0156 9.16471 34.0156 10.5684V23.4609C34.0156 24.8737 33.6556 25.931 32.9355 26.6328C32.2155 27.3438 31.1445 27.6992 29.7227 27.6992H11.0469ZM11.0469 4.4707C9.74349 4.4707 8.63151 4.71224 7.71094 5.19531C6.79948 5.66927 6.09766 6.36198 5.60547 7.27344C5.1224 8.1849 4.88086 9.2832 4.88086 10.5684V21.3691H4.29297C2.86198 21.3691 1.78646 21.0182 1.06641 20.3164C0.355469 19.6055 0 18.5436 0 17.1309V4.23828C0 2.82552 0.355469 1.76823 1.06641 1.06641C1.78646 0.355469 2.86198 0 4.29297 0H22.9688C24.3906 0 25.4616 0.355469 26.1816 1.06641C26.9017 1.77734 27.2617 2.83464 27.2617 4.23828V4.4707H11.0469Z" fill="#007AFF"/>
</svg>
