<svg width="29" height="30" viewBox="0 0 29 30" fill="none" xmlns="http://www.w3.org/2000/svg">
<path d="M4.15625 29.7227C2.77083 29.7227 1.73177 29.3763 1.03906 28.6836C0.346354 28 0 26.9746 0 25.6074V11.8535C0 10.4954 0.346354 9.47461 1.03906 8.79102C1.73177 8.09831 2.77083 7.75195 4.15625 7.75195H23.9395C25.3158 7.75195 26.3503 8.09831 27.043 8.79102C27.7448 9.47461 28.0957 10.4954 28.0957 11.8535V25.6074C28.0957 26.9655 27.7448 27.9909 27.043 28.6836C26.3503 29.3763 25.3158 29.7227 23.9395 29.7227H4.15625ZM2.61133 5.55078C2.71159 4.93099 2.92578 4.45703 3.25391 4.12891C3.58203 3.79167 4.08789 3.62305 4.77148 3.62305H23.3379C24.0215 3.62305 24.5228 3.79167 24.8418 4.12891C25.1699 4.45703 25.3887 4.93099 25.498 5.55078H2.61133ZM5.42773 1.76367C5.46419 1.18034 5.64648 0.742839 5.97461 0.451172C6.31185 0.150391 6.79492 0 7.42383 0H20.6719C21.3099 0 21.793 0.150391 22.1211 0.451172C22.4492 0.742839 22.6361 1.18034 22.6816 1.76367H5.42773Z" fill="#999999"/>
</svg>
