<svg width="28" height="24" viewBox="0 0 28 24" fill="none" xmlns="http://www.w3.org/2000/svg">
<path d="M18.6758 23.2832C18.0742 23.2832 17.5228 23.1328 17.0215 22.832C16.5293 22.5404 16.1328 22.1439 15.832 21.6426C15.5312 21.1504 15.3809 20.6035 15.3809 20.002C15.3809 19.4004 15.5312 18.8535 15.832 18.3613C16.1328 17.86 16.5293 17.4635 17.0215 17.1719C17.5228 16.8711 18.0742 16.7207 18.6758 16.7207C19.2773 16.7207 19.8242 16.8711 20.3164 17.1719C20.8177 17.4635 21.2142 17.86 21.5059 18.3613C21.8066 18.8535 21.957 19.4004 21.957 20.002C21.957 20.6035 21.8066 21.1504 21.5059 21.6426C21.2142 22.1439 20.8177 22.5404 20.3164 22.832C19.8242 23.1328 19.2773 23.2832 18.6758 23.2832ZM18.6758 21.6016C19.1224 21.6016 19.5007 21.4466 19.8105 21.1367C20.1204 20.8268 20.2754 20.4486 20.2754 20.002C20.2754 19.5462 20.1204 19.168 19.8105 18.8672C19.5007 18.5573 19.1224 18.4023 18.6758 18.4023C18.2292 18.4023 17.8509 18.5573 17.541 18.8672C17.2311 19.168 17.0762 19.5462 17.0762 20.002C17.0762 20.4486 17.2311 20.8268 17.541 21.1367C17.8509 21.4466 18.2292 21.6016 18.6758 21.6016ZM16.502 18.8945V21.0957H1.09375C0.792969 21.0957 0.533203 20.9909 0.314453 20.7812C0.104818 20.5625 0 20.3027 0 20.002C0 19.6921 0.104818 19.4323 0.314453 19.2227C0.533203 19.0039 0.792969 18.8945 1.09375 18.8945H16.502ZM26.4961 18.8945C26.7786 18.8945 27.0247 19.0039 27.2344 19.2227C27.444 19.4323 27.5488 19.6921 27.5488 20.002C27.5488 20.3027 27.444 20.5625 27.2344 20.7812C27.0247 20.9909 26.7786 21.0957 26.4961 21.0957H21.0547V18.8945H26.4961ZM9.02344 14.9434C8.42188 14.9434 7.87044 14.793 7.36914 14.4922C6.87695 14.1914 6.48047 13.7949 6.17969 13.3027C5.88802 12.8014 5.74219 12.25 5.74219 11.6484C5.74219 11.0469 5.88802 10.5 6.17969 10.0078C6.48047 9.50651 6.87695 9.11003 7.36914 8.81836C7.87044 8.51758 8.42188 8.36719 9.02344 8.36719C9.625 8.36719 10.1719 8.51758 10.6641 8.81836C11.1654 9.11003 11.5618 9.50651 11.8535 10.0078C12.1543 10.5 12.3047 11.0469 12.3047 11.6484C12.3047 12.25 12.1543 12.8014 11.8535 13.3027C11.5618 13.7949 11.1654 14.1914 10.6641 14.4922C10.1719 14.793 9.625 14.9434 9.02344 14.9434ZM9.02344 13.248C9.47917 13.248 9.85742 13.0931 10.1582 12.7832C10.4681 12.4733 10.623 12.0951 10.623 11.6484C10.623 11.1927 10.4681 10.8145 10.1582 10.5137C9.85742 10.2038 9.47917 10.0488 9.02344 10.0488C8.57682 10.0488 8.19857 10.2038 7.88867 10.5137C7.57878 10.8145 7.42383 11.1927 7.42383 11.6484C7.42383 12.0951 7.57878 12.4733 7.88867 12.7832C8.19857 13.0931 8.57682 13.248 9.02344 13.248ZM1.03906 10.541H6.67188V12.7422H1.03906C0.765625 12.7422 0.524089 12.6374 0.314453 12.4277C0.104818 12.2181 0 11.9583 0 11.6484C0 11.3385 0.104818 11.0788 0.314453 10.8691C0.524089 10.6504 0.765625 10.541 1.03906 10.541ZM26.4414 10.541C26.7513 10.541 27.0111 10.6504 27.2207 10.8691C27.4395 11.0788 27.5488 11.3385 27.5488 11.6484C27.5488 11.9583 27.4395 12.2181 27.2207 12.4277C27.0111 12.6374 26.7513 12.7422 26.4414 12.7422H11.1973V10.541H26.4414ZM18.6758 6.57617C18.0742 6.57617 17.5228 6.43034 17.0215 6.13867C16.5293 5.83789 16.1328 5.44141 15.832 4.94922C15.5312 4.44792 15.3809 3.89648 15.3809 3.29492C15.3809 2.69336 15.5312 2.14648 15.832 1.6543C16.1328 1.15299 16.5293 0.751953 17.0215 0.451172C17.5228 0.150391 18.0742 0 18.6758 0C19.2773 0 19.8242 0.150391 20.3164 0.451172C20.8177 0.751953 21.2142 1.15299 21.5059 1.6543C21.8066 2.14648 21.957 2.69336 21.957 3.29492C21.957 3.89648 21.8066 4.44792 21.5059 4.94922C21.2142 5.44141 20.8177 5.83789 20.3164 6.13867C19.8242 6.43034 19.2773 6.57617 18.6758 6.57617ZM18.6758 4.89453C19.1224 4.89453 19.5007 4.73958 19.8105 4.42969C20.1204 4.11068 20.2754 3.72786 20.2754 3.28125C20.2754 2.83464 20.1204 2.45638 19.8105 2.14648C19.5007 1.83659 19.1224 1.68164 18.6758 1.68164C18.2292 1.68164 17.8509 1.83659 17.541 2.14648C17.2311 2.45638 17.0762 2.83464 17.0762 3.28125C17.0762 3.72786 17.2311 4.11068 17.541 4.42969C17.8509 4.73958 18.2292 4.89453 18.6758 4.89453ZM16.5703 2.20117V4.40234H1.09375C0.792969 4.40234 0.533203 4.29753 0.314453 4.08789C0.104818 3.86914 0 3.60482 0 3.29492C0 2.99414 0.104818 2.73893 0.314453 2.5293C0.533203 2.31055 0.792969 2.20117 1.09375 2.20117H16.5703ZM26.4961 2.20117C26.7786 2.20117 27.0247 2.31055 27.2344 2.5293C27.444 2.73893 27.5488 2.99414 27.5488 3.29492C27.5488 3.60482 27.444 3.86914 27.2344 4.08789C27.0247 4.29753 26.7786 4.40234 26.4961 4.40234H20.8633V2.20117H26.4961Z" fill="#007AFF"/>
</svg>
