<svg width="25" height="31" viewBox="0 0 25 31" fill="none" xmlns="http://www.w3.org/2000/svg">
<path d="M4.29297 30.7207C2.86198 30.7207 1.78646 30.3652 1.06641 29.6543C0.355469 28.9525 0 27.8952 0 26.4824V12.9883C0 11.5755 0.355469 10.5182 1.06641 9.81641C1.78646 9.10547 2.86198 8.75 4.29297 8.75H8.47656V10.9512H4.32031C3.63672 10.9512 3.11263 11.1335 2.74805 11.498C2.38346 11.8535 2.20117 12.3867 2.20117 13.0977V26.373C2.20117 27.084 2.38346 27.6172 2.74805 27.9727C3.11263 28.3372 3.63672 28.5195 4.32031 28.5195H19.9336C20.6081 28.5195 21.1322 28.3372 21.5059 27.9727C21.8796 27.6172 22.0664 27.084 22.0664 26.373V13.0977C22.0664 12.3867 21.8796 11.8535 21.5059 11.498C21.1322 11.1335 20.6081 10.9512 19.9336 10.9512H15.7773V8.75H19.9746C21.4056 8.75 22.4766 9.10547 23.1875 9.81641C23.9076 10.5182 24.2676 11.5755 24.2676 12.9883V26.4824C24.2676 27.8952 23.9076 28.9525 23.1875 29.6543C22.4766 30.3652 21.4056 30.7207 19.9746 30.7207H4.29297ZM12.127 20.002C11.8353 20.002 11.5801 19.8971 11.3613 19.6875C11.1517 19.4779 11.0469 19.2318 11.0469 18.9492V5.03125L11.1289 2.99414L10.3633 3.80078L8.24414 6.05664C8.05273 6.27539 7.80208 6.38477 7.49219 6.38477C7.20964 6.38477 6.97266 6.29362 6.78125 6.11133C6.59896 5.92904 6.50781 5.70117 6.50781 5.42773C6.50781 5.16341 6.61719 4.92188 6.83594 4.70312L11.334 0.355469C11.4798 0.21875 11.612 0.127604 11.7305 0.0820312C11.8581 0.0273438 11.9902 0 12.127 0C12.2728 0 12.4049 0.0273438 12.5234 0.0820312C12.651 0.127604 12.7832 0.21875 12.9199 0.355469L17.4316 4.70312C17.6413 4.92188 17.7461 5.16341 17.7461 5.42773C17.7461 5.70117 17.6504 5.92904 17.459 6.11133C17.2676 6.29362 17.0306 6.38477 16.748 6.38477C16.4473 6.38477 16.2012 6.27539 16.0098 6.05664L13.9043 3.80078L13.1387 2.99414L13.2207 5.03125V18.9492C13.2207 19.2318 13.1113 19.4779 12.8926 19.6875C12.6829 19.8971 12.4277 20.002 12.127 20.002Z" fill="#007AFF"/>
</svg>
