<svg width="28" height="28" viewBox="0 0 28 28" fill="none" xmlns="http://www.w3.org/2000/svg">
<path d="M4.29297 27.0293C2.87109 27.0293 1.80013 26.6738 1.08008 25.9629C0.360026 25.2611 0 24.2038 0 22.791V7.04102C0 5.62826 0.360026 4.57096 1.08008 3.86914C1.80013 3.1582 2.87109 2.80273 4.29297 2.80273H19.7832L17.582 5.00391H4.33398C3.65039 5.00391 3.12174 5.1862 2.74805 5.55078C2.38346 5.91536 2.20117 6.45312 2.20117 7.16406V22.6816C2.20117 23.3926 2.38346 23.9303 2.74805 24.2949C3.12174 24.6504 3.65039 24.8281 4.33398 24.8281H20.3164C20.7904 24.8281 21.1914 24.6504 21.5195 24.2949C21.8568 23.9303 22.0254 23.3926 22.0254 22.6816V9.55664L24.2266 7.35547V22.791C24.2266 24.2038 23.8848 25.2611 23.2012 25.9629C22.5267 26.6738 21.5742 27.0293 20.3438 27.0293H4.29297ZM9.26953 18.1699C9.14193 18.2246 9.02344 18.1973 8.91406 18.0879C8.8138 17.9694 8.79102 17.8509 8.8457 17.7324L10.0762 15.1621L22.832 2.40625L24.7051 4.25195L11.9355 17.0078L9.26953 18.1699ZM25.7168 3.25391L23.8438 1.36719L24.8418 0.382812C25.0697 0.164062 25.3294 0.0455729 25.6211 0.0273438C25.9219 0.00911458 26.1771 0.104818 26.3867 0.314453L26.7012 0.642578C26.9382 0.870443 27.0521 1.13477 27.043 1.43555C27.043 1.72721 26.929 1.99609 26.7012 2.24219L25.7168 3.25391Z" fill="#999999"/>
</svg>
