<svg width="28" height="31" viewBox="0 0 28 31" fill="none" xmlns="http://www.w3.org/2000/svg">
<path d="M13.9453 30.6523C12.0404 30.6523 10.2448 30.2878 8.55859 29.5586C6.88151 28.8294 5.40039 27.8223 4.11523 26.5371C2.83008 25.252 1.82292 23.7708 1.09375 22.0938C0.364583 20.4076 0 18.612 0 16.707C0 14.8021 0.364583 13.0111 1.09375 11.334C1.82292 9.64779 2.82552 8.16211 4.10156 6.87695C5.38672 5.5918 6.86784 4.58464 8.54492 3.85547C10.2311 3.1263 12.0267 2.76172 13.9316 2.76172C15.8366 2.76172 17.6322 3.1263 19.3184 3.85547C21.0046 4.58464 22.4902 5.5918 23.7754 6.87695C25.0605 8.16211 26.0677 9.64779 26.7969 11.334C27.526 13.0111 27.8906 14.8021 27.8906 16.707C27.8906 18.612 27.526 20.4076 26.7969 22.0938C26.0677 23.7708 25.0605 25.252 23.7754 26.5371C22.4902 27.8223 21.0046 28.8294 19.3184 29.5586C17.6413 30.2878 15.8503 30.6523 13.9453 30.6523ZM13.9453 18.9219C14.556 18.9219 15.0755 18.7077 15.5039 18.2793C15.9323 17.8509 16.1465 17.3314 16.1465 16.7207C16.1465 16.2832 16.0326 15.8913 15.8047 15.5449C15.5768 15.1895 15.2715 14.9206 14.8887 14.7383V7.94336C14.8887 7.67904 14.7975 7.45573 14.6152 7.27344C14.4329 7.09115 14.2051 7 13.9316 7C13.6673 7 13.444 7.09115 13.2617 7.27344C13.0794 7.45573 12.9883 7.67904 12.9883 7.94336V14.7246C12.6146 14.9251 12.3138 15.2031 12.0859 15.5586C11.8581 15.9049 11.7441 16.2923 11.7441 16.7207C11.7441 17.3223 11.9538 17.8418 12.373 18.2793C12.8014 18.7077 13.3255 18.9219 13.9453 18.9219ZM12.4688 3.5V1.50391C12.4688 1.09375 12.61 0.742839 12.8926 0.451172C13.1842 0.150391 13.5306 0 13.9316 0C14.3418 0 14.6882 0.150391 14.9707 0.451172C15.2533 0.742839 15.3945 1.09375 15.3945 1.50391V3.5H12.4688ZM22.4629 6.5625L23.9668 5.08594C24.2767 4.78516 24.6504 4.63477 25.0879 4.63477C25.4889 4.63477 25.8216 4.77148 26.0859 5.04492C26.3594 5.30924 26.4961 5.63281 26.4961 6.01562C26.4961 6.42578 26.332 6.79492 26.0039 7.12305L24.4727 8.66797L22.4629 6.5625Z" fill="#007AFF"/>
</svg>
