<svg width="30" height="30" viewBox="0 0 30 30" fill="none" xmlns="http://www.w3.org/2000/svg">
<path d="M14.793 5.31836C14.4648 5.31836 14.1823 5.20443 13.9453 4.97656C13.7174 4.73958 13.6035 4.45703 13.6035 4.12891V1.18945C13.6035 0.861328 13.7174 0.583333 13.9453 0.355469C14.1823 0.11849 14.4648 0 14.793 0C15.112 0 15.3854 0.11849 15.6133 0.355469C15.8503 0.583333 15.9688 0.861328 15.9688 1.18945V4.12891C15.9688 4.45703 15.8503 4.73958 15.6133 4.97656C15.3854 5.20443 15.112 5.31836 14.793 5.31836ZM21.4922 8.12109C21.2643 7.89323 21.1504 7.61523 21.1504 7.28711C21.1504 6.95898 21.2643 6.68099 21.4922 6.45312L23.5977 4.34766C23.8255 4.11979 24.1035 4.00586 24.4316 4.00586C24.7598 4.00586 25.0378 4.11979 25.2656 4.34766C25.4935 4.57552 25.6074 4.85807 25.6074 5.19531C25.6074 5.52344 25.4935 5.80143 25.2656 6.0293L23.1738 8.12109C22.946 8.35807 22.6634 8.47656 22.3262 8.47656C21.998 8.46745 21.7201 8.34896 21.4922 8.12109ZM24.2676 14.834C24.2676 14.5059 24.3815 14.2279 24.6094 14C24.8464 13.763 25.1289 13.6445 25.457 13.6445H28.3965C28.7155 13.6445 28.9889 13.763 29.2168 14C29.4538 14.2279 29.5723 14.5059 29.5723 14.834C29.5723 15.153 29.4538 15.431 29.2168 15.668C28.9889 15.8958 28.7155 16.0098 28.3965 16.0098H25.457C25.1289 16.0098 24.8464 15.8958 24.6094 15.668C24.3815 15.431 24.2676 15.153 24.2676 14.834ZM21.4922 21.5469C21.7201 21.3281 21.998 21.2188 22.3262 21.2188C22.6543 21.2188 22.9323 21.3281 23.1602 21.5469L25.2656 23.6523C25.4935 23.8711 25.6074 24.1445 25.6074 24.4727C25.6074 24.8008 25.4935 25.0833 25.2656 25.3203C25.0378 25.5391 24.7598 25.6484 24.4316 25.6484C24.1035 25.6576 23.8255 25.5527 23.5977 25.334L21.4922 23.2148C21.2643 22.9961 21.1504 22.7227 21.1504 22.3945C21.1504 22.0664 21.2643 21.7839 21.4922 21.5469ZM14.793 24.3496C15.112 24.3496 15.3854 24.4681 15.6133 24.7051C15.8503 24.9329 15.9688 25.2064 15.9688 25.5254V28.4785C15.9688 28.7975 15.8503 29.071 15.6133 29.2988C15.3854 29.5358 15.112 29.6543 14.793 29.6543C14.4648 29.6543 14.1823 29.5358 13.9453 29.2988C13.7174 29.071 13.6035 28.7975 13.6035 28.4785V25.5254C13.6035 25.2064 13.7174 24.9329 13.9453 24.7051C14.1823 24.4681 14.4648 24.3496 14.793 24.3496ZM8.08008 21.5469C8.29883 21.7839 8.4082 22.0664 8.4082 22.3945C8.4082 22.7227 8.29427 22.9961 8.06641 23.2148L5.97461 25.3203C5.74674 25.5391 5.46419 25.6439 5.12695 25.6348C4.79883 25.6348 4.52083 25.5254 4.29297 25.3066C4.07422 25.0697 3.96484 24.7871 3.96484 24.459C3.96484 24.1309 4.07878 23.8574 4.30664 23.6387L6.39844 21.5469C6.6263 21.3281 6.9043 21.2188 7.23242 21.2188C7.56966 21.2188 7.85221 21.3281 8.08008 21.5469ZM5.30469 14.834C5.30469 15.153 5.1862 15.431 4.94922 15.668C4.72135 15.8958 4.44336 16.0098 4.11523 16.0098H1.17578C0.856771 16.0098 0.578776 15.8958 0.341797 15.668C0.113932 15.431 0 15.153 0 14.834C0 14.5059 0.113932 14.2279 0.341797 14C0.578776 13.763 0.856771 13.6445 1.17578 13.6445H4.11523C4.44336 13.6445 4.72135 13.763 4.94922 14C5.1862 14.2279 5.30469 14.5059 5.30469 14.834ZM8.06641 8.12109C7.83854 8.34896 7.56055 8.46289 7.23242 8.46289C6.9043 8.46289 6.6263 8.34896 6.39844 8.12109L4.30664 6.01562C4.08789 5.79688 3.97852 5.52344 3.97852 5.19531C3.97852 4.85807 4.09245 4.57552 4.32031 4.34766C4.54818 4.11979 4.82617 4.01042 5.1543 4.01953C5.49154 4.01953 5.76953 4.12891 5.98828 4.34766L8.08008 6.45312C8.29883 6.67188 8.4082 6.94987 8.4082 7.28711C8.4082 7.62435 8.29427 7.90234 8.06641 8.12109ZM14.7793 21.793C13.8223 21.793 12.9199 21.6152 12.0723 21.2598C11.2337 20.8952 10.4954 20.3939 9.85742 19.7559C9.2194 19.1178 8.7181 18.3796 8.35352 17.541C7.99805 16.6934 7.82031 15.791 7.82031 14.834C7.82031 13.8678 7.99805 12.9655 8.35352 12.127C8.7181 11.2884 9.2194 10.5501 9.85742 9.91211C10.4954 9.27409 11.2337 8.77279 12.0723 8.4082C12.9199 8.04362 13.8223 7.86133 14.7793 7.86133C15.7363 7.86133 16.6341 8.04362 17.4727 8.4082C18.3203 8.77279 19.0632 9.27409 19.7012 9.91211C20.3392 10.5501 20.8359 11.2884 21.1914 12.127C21.556 12.9655 21.7383 13.8678 21.7383 14.834C21.7383 15.791 21.556 16.6934 21.1914 17.541C20.8359 18.3796 20.3392 19.1178 19.7012 19.7559C19.0632 20.3939 18.3203 20.8952 17.4727 21.2598C16.6341 21.6152 15.7363 21.793 14.7793 21.793Z" fill="#F2C800"/>
</svg>
