<svg width="28" height="28" viewBox="0 0 28 28" fill="none" xmlns="http://www.w3.org/2000/svg">
<path d="M13.9453 27.8906C12.0404 27.8906 10.2448 27.526 8.55859 26.7969C6.88151 26.0677 5.40039 25.0605 4.11523 23.7754C2.83008 22.4902 1.82292 21.0091 1.09375 19.332C0.364583 17.6458 0 15.8503 0 13.9453C0 12.2409 0.300781 10.623 0.902344 9.0918C1.50391 7.55143 2.32422 6.17057 3.36328 4.94922C3.60938 4.64844 3.89648 4.48893 4.22461 4.4707C4.56185 4.44336 4.8444 4.54818 5.07227 4.78516C5.30013 5.02214 5.40951 5.29102 5.40039 5.5918C5.39128 5.89258 5.28646 6.17513 5.08594 6.43945C4.22005 7.44206 3.54557 8.58594 3.0625 9.87109C2.57943 11.1471 2.33333 12.5052 2.32422 13.9453C2.32422 15.5586 2.62044 17.0671 3.21289 18.4707C3.81445 19.8743 4.64388 21.1094 5.70117 22.1758C6.76758 23.2331 8.0026 24.0625 9.40625 24.6641C10.819 25.2656 12.332 25.5664 13.9453 25.5664C15.5586 25.5664 17.0671 25.2656 18.4707 24.6641C19.8743 24.0625 21.1048 23.2331 22.1621 22.1758C23.2285 21.1094 24.0579 19.8743 24.6504 18.4707C25.252 17.0671 25.5527 15.5586 25.5527 13.9453C25.5527 12.332 25.252 10.8236 24.6504 9.41992C24.0579 8.00716 23.2285 6.77214 22.1621 5.71484C21.1048 4.64844 19.8743 3.81901 18.4707 3.22656C17.0671 2.625 15.554 2.32422 13.9316 2.32422L14.8887 1.12109V6.43945C14.8887 6.74023 14.793 6.99544 14.6016 7.20508C14.4193 7.4056 14.1777 7.50586 13.877 7.50586C13.5853 7.50586 13.3438 7.4056 13.1523 7.20508C12.9701 6.99544 12.8789 6.74023 12.8789 6.43945V1.14844C12.8789 0.792969 12.9655 0.514974 13.1387 0.314453C13.321 0.104818 13.5944 0 13.959 0C15.8639 0 17.6549 0.364583 19.332 1.09375C21.0182 1.82292 22.4993 2.83008 23.7754 4.11523C25.0605 5.40039 26.0677 6.88607 26.7969 8.57227C27.526 10.2493 27.8906 12.0404 27.8906 13.9453C27.8906 15.8503 27.526 17.6458 26.7969 19.332C26.0677 21.0091 25.0605 22.4902 23.7754 23.7754C22.4902 25.0605 21.0046 26.0677 19.3184 26.7969C17.6413 27.526 15.8503 27.8906 13.9453 27.8906ZM13.9453 16.1465C13.5352 16.1465 13.166 16.0462 12.8379 15.8457C12.5098 15.6361 12.2363 15.3626 12.0176 15.0254L7.46484 8.2168C7.3099 7.97982 7.26432 7.76562 7.32812 7.57422C7.40104 7.3737 7.53776 7.23698 7.73828 7.16406C7.9388 7.09115 8.14844 7.13672 8.36719 7.30078L15.2168 12.1406C15.4993 12.3411 15.7272 12.6009 15.9004 12.9199C16.0736 13.2298 16.1602 13.5716 16.1602 13.9453C16.1602 14.556 15.9414 15.0755 15.5039 15.5039C15.0755 15.9323 14.556 16.1465 13.9453 16.1465Z" fill="#999999"/>
</svg>
