<svg width="27" height="31" viewBox="0 0 27 31" fill="none" xmlns="http://www.w3.org/2000/svg">
<path d="M9.1875 26.0449C8.93229 26.0449 8.72721 25.972 8.57227 25.8262C8.41732 25.6803 8.33529 25.4844 8.32617 25.2383L7.91602 10.623C7.9069 10.3861 7.97982 10.1947 8.13477 10.0488C8.29883 9.89388 8.50846 9.81641 8.76367 9.81641C9.00977 9.81641 9.21029 9.88932 9.36523 10.0352C9.5293 10.181 9.61133 10.3724 9.61133 10.6094L10.0352 25.2383C10.0352 25.4753 9.95768 25.6712 9.80273 25.8262C9.64779 25.972 9.44271 26.0449 9.1875 26.0449ZM13.2344 26.0449C12.9792 26.0449 12.7695 25.972 12.6055 25.8262C12.4414 25.6712 12.3594 25.4753 12.3594 25.2383V10.623C12.3594 10.3861 12.4414 10.1947 12.6055 10.0488C12.7695 9.89388 12.9792 9.81641 13.2344 9.81641C13.4987 9.81641 13.7129 9.89388 13.877 10.0488C14.041 10.1947 14.123 10.3861 14.123 10.623V25.2383C14.123 25.4753 14.041 25.6712 13.877 25.8262C13.7129 25.972 13.4987 26.0449 13.2344 26.0449ZM17.2949 26.0449C17.0306 26.0449 16.821 25.972 16.666 25.8262C16.5111 25.6712 16.4382 25.4753 16.4473 25.2383L16.8574 10.623C16.8665 10.377 16.9486 10.181 17.1035 10.0352C17.2585 9.88932 17.459 9.81641 17.7051 9.81641C17.9694 9.81641 18.179 9.89388 18.334 10.0488C18.4889 10.1947 18.5618 10.3861 18.5527 10.623L18.1426 25.2383C18.1335 25.4844 18.0514 25.6803 17.8965 25.8262C17.7415 25.972 17.541 26.0449 17.2949 26.0449ZM7.23242 6.24805V3.18555C7.23242 2.20117 7.5332 1.42643 8.13477 0.861328C8.74544 0.287109 9.57487 0 10.623 0H15.8184C16.8665 0 17.6914 0.287109 18.293 0.861328C18.9036 1.42643 19.209 2.20117 19.209 3.18555V6.24805H17.0352V3.32227C17.0352 2.93945 16.9076 2.62956 16.6523 2.39258C16.4062 2.1556 16.0781 2.03711 15.668 2.03711H10.7734C10.3633 2.03711 10.0306 2.1556 9.77539 2.39258C9.5293 2.62956 9.40625 2.93945 9.40625 3.32227V6.24805H7.23242ZM1.02539 7.3418C0.751953 7.3418 0.510417 7.24154 0.300781 7.04102C0.10026 6.83138 0 6.58529 0 6.30273C0 6.0293 0.10026 5.79232 0.300781 5.5918C0.510417 5.38216 0.751953 5.27734 1.02539 5.27734H25.457C25.7305 5.27734 25.9674 5.3776 26.168 5.57812C26.3685 5.77865 26.4688 6.02018 26.4688 6.30273C26.4688 6.58529 26.3685 6.83138 26.168 7.04102C25.9766 7.24154 25.7396 7.3418 25.457 7.3418H1.02539ZM6.97266 30.4473C5.98828 30.4473 5.19076 30.1556 4.58008 29.5723C3.97852 28.998 3.65495 28.2188 3.60938 27.2344L2.63867 7.08203H4.78516L5.75586 26.9883C5.77409 27.3893 5.91536 27.722 6.17969 27.9863C6.44401 28.2507 6.77214 28.3828 7.16406 28.3828H19.291C19.6921 28.3828 20.0247 28.2507 20.2891 27.9863C20.5534 27.7311 20.6947 27.3984 20.7129 26.9883L21.6289 7.08203H23.8301L22.873 27.2207C22.8275 28.2051 22.4993 28.9889 21.8887 29.5723C21.278 30.1556 20.485 30.4473 19.5098 30.4473H6.97266Z" fill="#007AFF"/>
</svg>
