<svg width="34" height="23" viewBox="0 0 34 23" fill="none" xmlns="http://www.w3.org/2000/svg">
<path d="M5.33203 22.4766C3.66406 22.4766 2.35612 22.0163 1.4082 21.0957C0.469401 20.166 0 18.8672 0 17.1992V5.26367C0 3.60482 0.48763 2.3151 1.46289 1.39453C2.44727 0.464844 3.73698 0 5.33203 0H19.6191C21.2871 0 22.5905 0.464844 23.5293 1.39453C24.4772 2.3151 24.9512 3.60482 24.9512 5.26367V17.1992C24.9512 18.8672 24.4772 20.166 23.5293 21.0957C22.5905 22.0163 21.2871 22.4766 19.6191 22.4766H5.33203ZM5.71484 20.4121H19.2363C20.3574 20.4121 21.2233 20.1204 21.834 19.5371C22.4447 18.9538 22.75 18.0697 22.75 16.8848V5.5918C22.75 4.4069 22.4447 3.52279 21.834 2.93945C21.2233 2.34701 20.3574 2.05078 19.2363 2.05078H5.71484C4.59375 2.05078 3.72786 2.34701 3.11719 2.93945C2.50651 3.52279 2.20117 4.4069 2.20117 5.5918V16.8848C2.20117 18.0697 2.50651 18.9538 3.11719 19.5371C3.72786 20.1204 4.59375 20.4121 5.71484 20.4121ZM24.6367 7.41016L30.1191 2.77539C30.3926 2.54753 30.6751 2.36523 30.9668 2.22852C31.2585 2.08268 31.5456 2.00977 31.8281 2.00977C32.4297 2.00977 32.9128 2.21029 33.2773 2.61133C33.6419 3.01237 33.8242 3.5319 33.8242 4.16992V18.3066C33.8242 18.9447 33.6419 19.4642 33.2773 19.8652C32.9128 20.2663 32.4297 20.4668 31.8281 20.4668C31.5456 20.4668 31.2585 20.3984 30.9668 20.2617C30.6751 20.1159 30.3926 19.929 30.1191 19.7012L24.6367 15.0527V12.4688L31.1445 17.8418C31.2083 17.8783 31.263 17.9147 31.3086 17.9512C31.3633 17.9785 31.418 17.9922 31.4727 17.9922C31.6276 17.9922 31.7051 17.8874 31.7051 17.6777V4.79883C31.7051 4.58008 31.6276 4.4707 31.4727 4.4707C31.418 4.4707 31.3633 4.48893 31.3086 4.52539C31.263 4.55273 31.2083 4.58919 31.1445 4.63477L24.6367 10.0078V7.41016Z" fill="#007AFF"/>
</svg>
