<svg width="32" height="23" viewBox="0 0 32 23" fill="none" xmlns="http://www.w3.org/2000/svg">
<path d="M15.7363 22.7227C15.5814 22.7227 15.4264 22.6771 15.2715 22.5859C15.1165 22.4948 14.9069 22.3216 14.6426 22.0664L11.3203 18.8672C11.2109 18.7669 11.1426 18.6576 11.1152 18.5391C11.097 18.4206 11.1198 18.3066 11.1836 18.1973C11.6302 17.6048 12.2546 17.0853 13.0566 16.6387C13.8587 16.1921 14.752 15.9688 15.7363 15.9688C16.6934 15.9688 17.5684 16.1829 18.3613 16.6113C19.1634 17.0397 19.7878 17.541 20.2344 18.1152C20.3346 18.2337 20.3711 18.3659 20.3438 18.5117C20.3255 18.6484 20.2663 18.7669 20.166 18.8672L16.8301 22.0664C16.5658 22.3307 16.3561 22.5039 16.2012 22.5859C16.0462 22.6771 15.8913 22.7227 15.7363 22.7227ZM7.73828 15.2852L5.61914 13.166C5.50065 13.0475 5.43685 12.9199 5.42773 12.7832C5.42773 12.6465 5.47786 12.5189 5.57812 12.4004C6.27083 11.5527 7.13672 10.7962 8.17578 10.1309C9.21484 9.46549 10.377 8.94141 11.6621 8.55859C12.9564 8.16667 14.3145 7.9707 15.7363 7.9707C17.1582 7.9707 18.5117 8.16667 19.7969 8.55859C21.0911 8.94141 22.2578 9.46549 23.2969 10.1309C24.3451 10.7962 25.2109 11.5527 25.8945 12.4004C25.9948 12.5189 26.0404 12.651 26.0312 12.7969C26.0221 12.9336 25.9629 13.0566 25.8535 13.166L23.7344 15.2715C23.5885 15.4082 23.4336 15.4766 23.2695 15.4766C23.1146 15.4766 22.9733 15.4082 22.8457 15.2715C22.0072 14.36 20.959 13.6035 19.7012 13.002C18.4434 12.3913 17.1217 12.0905 15.7363 12.0996C14.3691 12.0905 13.0566 12.3822 11.7988 12.9746C10.541 13.5671 9.50195 14.319 8.68164 15.2305C8.54492 15.3763 8.38997 15.4583 8.2168 15.4766C8.04362 15.4857 7.88411 15.4219 7.73828 15.2852ZM2.06445 9.57031L0.177734 7.65625C0.0683594 7.52865 0.00911458 7.39648 0 7.25977C0 7.12305 0.0455729 6.99544 0.136719 6.87695C1.20312 5.55534 2.55208 4.375 4.18359 3.33594C5.8151 2.29688 7.61979 1.48112 9.59766 0.888672C11.5755 0.296224 13.6217 0 15.7363 0C17.8509 0 19.8971 0.300781 21.875 0.902344C23.8529 1.49479 25.6576 2.31055 27.2891 3.34961C28.9206 4.37956 30.2695 5.55534 31.3359 6.87695C31.4362 6.99544 31.4818 7.12305 31.4727 7.25977C31.4727 7.39648 31.4134 7.52865 31.2949 7.65625L29.4082 9.54297C29.2715 9.67969 29.1211 9.7526 28.957 9.76172C28.793 9.76172 28.6471 9.69792 28.5195 9.57031C26.8516 7.78385 24.9284 6.42578 22.75 5.49609C20.5716 4.56641 18.2337 4.10156 15.7363 4.10156C13.2572 4.10156 10.9284 4.56641 8.75 5.49609C6.58073 6.41667 4.65755 7.77018 2.98047 9.55664C2.85286 9.69336 2.70247 9.76628 2.5293 9.77539C2.35612 9.77539 2.20117 9.70703 2.06445 9.57031Z" fill="black"/>
</svg>
